<svg width="2057" height="1607" xmlns="http://www.w3.org/2000/svg" xmlns:xlink="http://www.w3.org/1999/xlink" overflow="hidden"><defs><clipPath id="clip0"><rect x="24" y="514" width="2057" height="1607"/></clipPath><clipPath id="clip1"><rect x="139" y="717" width="829" height="620"/></clipPath><clipPath id="clip2"><rect x="139" y="717" width="829" height="620"/></clipPath><clipPath id="clip3"><rect x="139" y="637" width="829" height="822"/></clipPath><clipPath id="clip4"><rect x="279" y="712" width="672" height="613"/></clipPath><clipPath id="clip5"><rect x="140" y="637" width="828" height="822"/></clipPath><clipPath id="clip6"><rect x="1224" y="717" width="828" height="620"/></clipPath><clipPath id="clip7"><rect x="1224" y="717" width="828" height="620"/></clipPath><clipPath id="clip8"><rect x="1224" y="637" width="828" height="822"/></clipPath><clipPath id="clip9"><rect x="1379" y="712" width="656" height="613"/></clipPath><clipPath id="clip10"><rect x="1224" y="637" width="828" height="822"/></clipPath><clipPath id="clip11"><rect x="1251" y="1365" width="831" height="756"/></clipPath><clipPath id="clip12"><rect x="1251" y="1365" width="831" height="756"/></clipPath><clipPath id="clip13"><rect x="1251" y="1301" width="831" height="820"/></clipPath><clipPath id="clip14"><rect x="1383" y="1376" width="681" height="612"/></clipPath><clipPath id="clip15"><rect x="1252" y="1301" width="829" height="820"/></clipPath><clipPath id="clip16"><rect x="154" y="1365" width="829" height="756"/></clipPath><clipPath id="clip17"><rect x="154" y="1365" width="829" height="756"/></clipPath><clipPath id="clip18"><rect x="154" y="1301" width="829" height="820"/></clipPath><clipPath id="clip19"><rect x="285" y="1376" width="680" height="612"/></clipPath><clipPath id="clip20"><rect x="154" y="1301" width="828" height="820"/></clipPath></defs><g clip-path="url(#clip0)" transform="translate(-24 -514)"><g clip-path="url(#clip1)"><g clip-path="url(#clip2)"><g clip-path="url(#clip3)"><g clip-path="url(#clip4)"><path d="M139.506 75.0639 809.997 75.0639 809.997 686.682 139.506 686.682Z" fill="#FFFFFF" transform="matrix(1 0 0 1.00063 140.145 637.233)"/><path d="M235.263 126.812 235.263 104.468" stroke="#333333" stroke-width="5.5375" stroke-linejoin="round" stroke-miterlimit="10" fill="none" transform="matrix(1 0 0 1.00063 140.145 637.233)"/><path d="M235.263 439.988 235.263 441.575" stroke="#333333" stroke-width="5.5375" stroke-linejoin="round" stroke-miterlimit="10" fill="none" transform="matrix(1 0 0 1.00063 140.145 637.233)"/><path d="M175.419 126.812 175.419 439.988 295.139 439.988 295.139 126.812 175.419 126.812Z" stroke="#333333" stroke-width="5.5375" stroke-linecap="round" stroke-linejoin="round" stroke-miterlimit="10" fill="#999999" transform="matrix(1 0 0 1.00063 140.145 637.233)"/><path d="M175.419 203.527 295.139 203.527" stroke="#333333" stroke-width="11.0426" stroke-linejoin="round" stroke-miterlimit="10" fill="none" transform="matrix(1 0 0 1.00063 140.145 637.233)"/><path d="M401.226 396.822C401.226 400.309 398.399 403.136 394.911 403.136 391.424 403.136 388.596 400.309 388.596 396.822 388.596 393.334 391.424 390.507 394.911 390.507 398.399 390.507 401.226 393.334 401.226 396.822Z" stroke="#333333" stroke-width="2.2992" stroke-linecap="round" stroke-linejoin="round" stroke-miterlimit="10" fill="#333333" transform="matrix(1 0 0 1.00063 140.145 637.233)"/><path d="M401.226 102.849C401.226 106.336 398.399 109.163 394.911 109.163 391.424 109.163 388.596 106.336 388.596 102.849 388.596 99.361 391.424 96.5338 394.911 96.5338 398.399 96.5338 401.226 99.361 401.226 102.849Z" stroke="#333333" stroke-width="2.2992" stroke-linecap="round" stroke-linejoin="round" stroke-miterlimit="10" fill="#333333" transform="matrix(1 0 0 1.00063 140.145 637.233)"/><path d="M394.911 200.71 394.911 198.735" stroke="#333333" stroke-width="5.5375" stroke-linejoin="round" stroke-miterlimit="10" fill="none" transform="matrix(1 0 0 1.00063 140.145 637.233)"/><path d="M394.911 245.852 394.911 253.041" stroke="#333333" stroke-width="5.5375" stroke-linejoin="round" stroke-miterlimit="10" fill="none" transform="matrix(1 0 0 1.00063 140.145 637.233)"/><path d="M335.035 200.71 335.035 245.852 454.787 245.852 454.787 200.71 335.035 200.71Z" stroke="#333333" stroke-width="5.5375" stroke-linecap="round" stroke-linejoin="round" stroke-miterlimit="10" fill="#E69F00" transform="matrix(1 0 0 1.00063 140.145 637.233)"/><path d="M335.035 215.509 454.787 215.509" stroke="#333333" stroke-width="11.0426" stroke-linejoin="round" stroke-miterlimit="10" fill="none" transform="matrix(1 0 0 1.00063 140.145 637.233)"/><path d="M554.559 400.028 554.559 285.003" stroke="#333333" stroke-width="5.5375" stroke-linejoin="round" stroke-miterlimit="10" fill="none" transform="matrix(1 0 0 1.00063 140.145 637.233)"/><path d="M554.559 555.013 554.559 658.865" stroke="#333333" stroke-width="5.5375" stroke-linejoin="round" stroke-miterlimit="10" fill="none" transform="matrix(1 0 0 1.00063 140.145 637.233)"/><path d="M494.683 400.028 494.683 555.013 614.403 555.013 614.403 400.028 494.683 400.028Z" stroke="#333333" stroke-width="5.5375" stroke-linecap="round" stroke-linejoin="round" stroke-miterlimit="10" fill="#56B4E9" transform="matrix(1 0 0 1.00063 140.145 637.233)"/><path d="M494.683 472.728 614.403 472.728" stroke="#333333" stroke-width="11.0426" stroke-linejoin="round" stroke-miterlimit="10" fill="none" transform="matrix(1 0 0 1.00063 140.145 637.233)"/><path d="M714.175 196.727 714.175 102.849" stroke="#333333" stroke-width="5.5375" stroke-linejoin="round" stroke-miterlimit="10" fill="none" transform="matrix(1 0 0 1.00063 140.145 637.233)"/><path d="M714.175 410.811 714.175 435.196" stroke="#333333" stroke-width="5.5375" stroke-linejoin="round" stroke-miterlimit="10" fill="none" transform="matrix(1 0 0 1.00063 140.145 637.233)"/><path d="M654.332 196.727 654.332 410.811 774.052 410.811 774.052 196.727 654.332 196.727Z" stroke="#333333" stroke-width="5.5375" stroke-linecap="round" stroke-linejoin="round" stroke-miterlimit="10" fill="#009E73" transform="matrix(1 0 0 1.00063 140.145 637.233)"/><path d="M654.332 336.136 774.052 336.136" stroke="#333333" stroke-width="11.0426" stroke-linejoin="round" stroke-miterlimit="10" fill="none" transform="matrix(1 0 0 1.00063 140.145 637.233)"/><path d="M242.614 441.575C242.614 445.635 239.323 448.926 235.263 448.926 231.203 448.926 227.912 445.635 227.912 441.575 227.912 437.515 231.203 434.224 235.263 434.224 239.323 434.224 242.614 437.515 242.614 441.575Z" stroke="#000000" stroke-width="2.2992" stroke-linecap="round" stroke-linejoin="round" stroke-miterlimit="10" fill="#999999" transform="matrix(1 0 0 1.00063 140.145 637.233)"/><path d="M242.614 439.988C242.614 444.048 239.323 447.339 235.263 447.339 231.203 447.339 227.912 444.048 227.912 439.988 227.912 435.928 231.203 432.637 235.263 432.637 239.323 432.637 242.614 435.928 242.614 439.988Z" stroke="#000000" stroke-width="2.2992" stroke-linecap="round" stroke-linejoin="round" stroke-miterlimit="10" fill="#999999" transform="matrix(1 0 0 1.00063 140.145 637.233)"/><path d="M242.614 126.812C242.614 130.872 239.323 134.163 235.263 134.163 231.203 134.163 227.912 130.872 227.912 126.812 227.912 122.752 231.203 119.461 235.263 119.461 239.323 119.461 242.614 122.752 242.614 126.812Z" stroke="#000000" stroke-width="2.2992" stroke-linecap="round" stroke-linejoin="round" stroke-miterlimit="10" fill="#999999" transform="matrix(1 0 0 1.00063 140.145 637.233)"/><path d="M242.614 203.527C242.614 207.587 239.323 210.878 235.263 210.878 231.203 210.878 227.912 207.587 227.912 203.527 227.912 199.468 231.203 196.176 235.263 196.176 239.323 196.176 242.614 199.468 242.614 203.527Z" stroke="#000000" stroke-width="2.2992" stroke-linecap="round" stroke-linejoin="round" stroke-miterlimit="10" fill="#999999" transform="matrix(1 0 0 1.00063 140.145 637.233)"/><path d="M242.614 104.468C242.614 108.527 239.323 111.819 235.263 111.819 231.203 111.819 227.912 108.527 227.912 104.468 227.912 100.408 231.203 97.1167 235.263 97.1167 239.323 97.1167 242.614 100.408 242.614 104.468Z" stroke="#000000" stroke-width="2.2992" stroke-linecap="round" stroke-linejoin="round" stroke-miterlimit="10" fill="#999999" transform="matrix(1 0 0 1.00063 140.145 637.233)"/><path d="M402.262 396.822C402.262 400.882 398.971 404.173 394.911 404.173 390.851 404.173 387.56 400.882 387.56 396.822 387.56 392.762 390.851 389.471 394.911 389.471 398.971 389.471 402.262 392.762 402.262 396.822Z" stroke="#000000" stroke-width="2.2992" stroke-linecap="round" stroke-linejoin="round" stroke-miterlimit="10" fill="#E69F00" transform="matrix(1 0 0 1.00063 140.145 637.233)"/><path d="M402.262 198.735C402.262 202.794 398.971 206.086 394.911 206.086 390.851 206.086 387.56 202.794 387.56 198.735 387.56 194.675 390.851 191.384 394.911 191.384 398.971 191.384 402.262 194.675 402.262 198.735Z" stroke="#000000" stroke-width="2.2992" stroke-linecap="round" stroke-linejoin="round" stroke-miterlimit="10" fill="#E69F00" transform="matrix(1 0 0 1.00063 140.145 637.233)"/><path d="M402.262 102.849C402.262 106.908 398.971 110.199 394.911 110.199 390.851 110.199 387.56 106.908 387.56 102.849 387.56 98.7887 390.851 95.4976 394.911 95.4976 398.971 95.4976 402.262 98.7887 402.262 102.849Z" stroke="#000000" stroke-width="2.2992" stroke-linecap="round" stroke-linejoin="round" stroke-miterlimit="10" fill="#E69F00" transform="matrix(1 0 0 1.00063 140.145 637.233)"/><path d="M402.262 206.701C402.262 210.761 398.971 214.052 394.911 214.052 390.851 214.052 387.56 210.761 387.56 206.701 387.56 202.641 390.851 199.35 394.911 199.35 398.971 199.35 402.262 202.641 402.262 206.701Z" stroke="#000000" stroke-width="2.2992" stroke-linecap="round" stroke-linejoin="round" stroke-miterlimit="10" fill="#E69F00" transform="matrix(1 0 0 1.00063 140.145 637.233)"/><path d="M402.262 224.285C402.262 228.345 398.971 231.636 394.911 231.636 390.851 231.636 387.56 228.345 387.56 224.285 387.56 220.225 390.851 216.934 394.911 216.934 398.971 216.934 402.262 220.225 402.262 224.285Z" stroke="#000000" stroke-width="2.2992" stroke-linecap="round" stroke-linejoin="round" stroke-miterlimit="10" fill="#E69F00" transform="matrix(1 0 0 1.00063 140.145 637.233)"/><path d="M402.262 253.041C402.262 257.101 398.971 260.392 394.911 260.392 390.851 260.392 387.56 257.101 387.56 253.041 387.56 248.981 390.851 245.69 394.911 245.69 398.971 245.69 402.262 248.981 402.262 253.041Z" stroke="#000000" stroke-width="2.2992" stroke-linecap="round" stroke-linejoin="round" stroke-miterlimit="10" fill="#E69F00" transform="matrix(1 0 0 1.00063 140.145 637.233)"/><path d="M561.91 658.865C561.91 662.925 558.619 666.216 554.559 666.216 550.5 666.216 547.208 662.925 547.208 658.865 547.208 654.805 550.5 651.514 554.559 651.514 558.619 651.514 561.91 654.805 561.91 658.865Z" stroke="#000000" stroke-width="2.2992" stroke-linecap="round" stroke-linejoin="round" stroke-miterlimit="10" fill="#56B4E9" transform="matrix(1 0 0 1.00063 140.145 637.233)"/><path d="M561.91 487.915C561.91 491.975 558.619 495.266 554.559 495.266 550.5 495.266 547.208 491.975 547.208 487.915 547.208 483.855 550.5 480.564 554.559 480.564 558.619 480.564 561.91 483.855 561.91 487.915Z" stroke="#000000" stroke-width="2.2992" stroke-linecap="round" stroke-linejoin="round" stroke-miterlimit="10" fill="#56B4E9" transform="matrix(1 0 0 1.00063 140.145 637.233)"/><path d="M561.91 285.003C561.91 289.063 558.619 292.354 554.559 292.354 550.5 292.354 547.208 289.063 547.208 285.003 547.208 280.943 550.5 277.652 554.559 277.652 558.619 277.652 561.91 280.943 561.91 285.003Z" stroke="#000000" stroke-width="2.2992" stroke-linecap="round" stroke-linejoin="round" stroke-miterlimit="10" fill="#56B4E9" transform="matrix(1 0 0 1.00063 140.145 637.233)"/><path d="M561.91 577.39C561.91 581.449 558.619 584.74 554.559 584.74 550.5 584.74 547.208 581.449 547.208 577.39 547.208 573.33 550.5 570.039 554.559 570.039 558.619 570.039 561.91 573.33 561.91 577.39Z" stroke="#000000" stroke-width="2.2992" stroke-linecap="round" stroke-linejoin="round" stroke-miterlimit="10" fill="#56B4E9" transform="matrix(1 0 0 1.00063 140.145 637.233)"/><path d="M561.91 380.857C561.91 384.917 558.619 388.208 554.559 388.208 550.5 388.208 547.208 384.917 547.208 380.857 547.208 376.797 550.5 373.506 554.559 373.506 558.619 373.506 561.91 376.797 561.91 380.857Z" stroke="#000000" stroke-width="2.2992" stroke-linecap="round" stroke-linejoin="round" stroke-miterlimit="10" fill="#56B4E9" transform="matrix(1 0 0 1.00063 140.145 637.233)"/><path d="M561.91 457.54C561.91 461.6 558.619 464.891 554.559 464.891 550.5 464.891 547.208 461.6 547.208 457.54 547.208 453.48 550.5 450.189 554.559 450.189 558.619 450.189 561.91 453.48 561.91 457.54Z" stroke="#000000" stroke-width="2.2992" stroke-linecap="round" stroke-linejoin="round" stroke-miterlimit="10" fill="#56B4E9" transform="matrix(1 0 0 1.00063 140.145 637.233)"/><path d="M721.526 342.515C721.526 346.575 718.235 349.866 714.175 349.866 710.116 349.866 706.824 346.575 706.824 342.515 706.824 338.456 710.116 335.164 714.175 335.164 718.235 335.164 721.526 338.456 721.526 342.515Z" stroke="#000000" stroke-width="2.2992" stroke-linecap="round" stroke-linejoin="round" stroke-miterlimit="10" fill="#009E73" transform="matrix(1 0 0 1.00063 140.145 637.233)"/><path d="M721.526 433.576C721.526 437.636 718.235 440.927 714.175 440.927 710.116 440.927 706.824 437.636 706.824 433.576 706.824 429.517 710.116 426.225 714.175 426.225 718.235 426.225 721.526 429.517 721.526 433.576Z" stroke="#000000" stroke-width="2.2992" stroke-linecap="round" stroke-linejoin="round" stroke-miterlimit="10" fill="#009E73" transform="matrix(1 0 0 1.00063 140.145 637.233)"/><path d="M721.526 435.196C721.526 439.255 718.235 442.547 714.175 442.547 710.116 442.547 706.824 439.255 706.824 435.196 706.824 431.136 710.116 427.845 714.175 427.845 718.235 427.845 721.526 431.136 721.526 435.196Z" stroke="#000000" stroke-width="2.2992" stroke-linecap="round" stroke-linejoin="round" stroke-miterlimit="10" fill="#009E73" transform="matrix(1 0 0 1.00063 140.145 637.233)"/><path d="M721.526 102.849C721.526 106.908 718.235 110.199 714.175 110.199 710.116 110.199 706.824 106.908 706.824 102.849 706.824 98.7887 710.116 95.4976 714.175 95.4976 718.235 95.4976 721.526 98.7887 721.526 102.849Z" stroke="#000000" stroke-width="2.2992" stroke-linecap="round" stroke-linejoin="round" stroke-miterlimit="10" fill="#009E73" transform="matrix(1 0 0 1.00063 140.145 637.233)"/><path d="M721.526 152.395C721.526 156.454 718.235 159.746 714.175 159.746 710.116 159.746 706.824 156.454 706.824 152.395 706.824 148.335 710.116 145.044 714.175 145.044 718.235 145.044 721.526 148.335 721.526 152.395Z" stroke="#000000" stroke-width="2.2992" stroke-linecap="round" stroke-linejoin="round" stroke-miterlimit="10" fill="#009E73" transform="matrix(1 0 0 1.00063 140.145 637.233)"/><path d="M721.526 329.724C721.526 333.784 718.235 337.075 714.175 337.075 710.116 337.075 706.824 333.784 706.824 329.724 706.824 325.664 710.116 322.373 714.175 322.373 718.235 322.373 721.526 325.664 721.526 329.724Z" stroke="#000000" stroke-width="2.2992" stroke-linecap="round" stroke-linejoin="round" stroke-miterlimit="10" fill="#009E73" transform="matrix(1 0 0 1.00063 140.145 637.233)"/></g><g clip-path="url(#clip5)"><path d="M139.506 686.65 139.506 75.0639" stroke="#000000" stroke-width="5.5375" stroke-linejoin="round" stroke-miterlimit="10" fill="none" transform="matrix(1 0 0 1.00063 140.145 637.233)"/><text font-family="Arial,Arial_MSFontService,sans-serif" font-weight="700" font-size="9" transform="matrix(3.2383 0 0 3.24035 247.462 1313)">2<tspan font-size="9" x="-3" y="0">.</tspan><tspan font-size="9" x="-8" y="0">0</tspan><tspan font-size="9" x="0" y="-49.3773">3</tspan><tspan font-size="9" x="-3" y="-49.3773">.</tspan><tspan font-size="9" x="-8" y="-49.3773">0</tspan><tspan font-size="9" x="0" y="-98.446">4</tspan><tspan font-size="9" x="-3" y="-98.446">.</tspan><tspan font-size="9" x="-8" y="-98.446">0</tspan><tspan font-size="9" x="0" y="-147.823">5</tspan><tspan font-size="9" x="-3" y="-147.823">.</tspan><tspan font-size="9" x="-8" y="-147.823">0</tspan></text><path d="M130.633 665.245 139.506 665.245" stroke="#333333" stroke-width="3.46498" stroke-linejoin="round" stroke-miterlimit="10" fill="none" transform="matrix(1 0 0 1.00063 140.145 637.233)"/><path d="M130.633 505.467 139.506 505.467" stroke="#333333" stroke-width="3.46498" stroke-linejoin="round" stroke-miterlimit="10" fill="none" transform="matrix(1 0 0 1.00063 140.145 637.233)"/><path d="M130.633 345.721 139.506 345.721" stroke="#333333" stroke-width="3.46498" stroke-linejoin="round" stroke-miterlimit="10" fill="none" transform="matrix(1 0 0 1.00063 140.145 637.233)"/><path d="M130.633 185.943 139.506 185.943" stroke="#333333" stroke-width="3.46498" stroke-linejoin="round" stroke-miterlimit="10" fill="none" transform="matrix(1 0 0 1.00063 140.145 637.233)"/><path d="M139.506 686.65 809.964 686.65" stroke="#000000" stroke-width="5.5375" stroke-linejoin="round" stroke-miterlimit="10" fill="none" transform="matrix(1 0 0 1.00063 140.145 637.233)"/><path d="M235.263 695.523 235.263 686.65" stroke="#333333" stroke-width="3.46498" stroke-linejoin="round" stroke-miterlimit="10" fill="none" transform="matrix(1 0 0 1.00063 140.145 637.233)"/><path d="M394.911 695.523 394.911 686.65" stroke="#333333" stroke-width="3.46498" stroke-linejoin="round" stroke-miterlimit="10" fill="none" transform="matrix(1 0 0 1.00063 140.145 637.233)"/><path d="M554.559 695.523 554.559 686.65" stroke="#333333" stroke-width="3.46498" stroke-linejoin="round" stroke-miterlimit="10" fill="none" transform="matrix(1 0 0 1.00063 140.145 637.233)"/><path d="M714.175 695.523 714.175 686.65" stroke="#333333" stroke-width="3.46498" stroke-linejoin="round" stroke-miterlimit="10" fill="none" transform="matrix(1 0 0 1.00063 140.145 637.233)"/><text font-family="Arial,Arial_MSFontService,sans-serif" font-weight="700" font-size="9" transform="matrix(3.2383 0 0 3.24035 318.737 1361)">Control<tspan font-size="9" x="51.3" y="0">0</tspan><tspan font-size="9" x="56.3" y="0">.</tspan>1 <tspan font-size="9" x="67.3" y="0">mM</tspan><tspan font-size="9" x="55.8" y="9.87546">MeJA</tspan><tspan font-size="9" x="104.6" y="0">1 </tspan><tspan font-size="9" x="112.6" y="0">mM</tspan><tspan font-size="9" x="105.1" y="9.87546">MeJA</tspan><tspan font-size="9" x="137.89" y="0">P</tspan><tspan font-size="9" x="143.89" y="0">. </tspan><tspan font-size="9" x="149.89" y="0">brassicae</tspan><tspan font-size="9" x="158.89" y="9.87546">OS</tspan></text><text font-family="Arial,Arial_MSFontService,sans-serif" font-weight="700" font-size="11" transform="matrix(1.98289e-16 -3.24035 3.2383 1.98414e-16 183.408 1278)">Shoot biomass<tspan font-size="11" x="83.0156" y="-5.08324e-15">(</tspan><tspan font-size="11" x="87.0275" y="-5.3289e-15">g dry weight</tspan><tspan font-size="11" x="156.156" y="-9.56178e-15">)</tspan></text><text font-family="Arial,Arial_MSFontService,sans-serif" font-weight="400" font-size="13" transform="matrix(3.2383 0 0 3.24035 279.651 686)">Bole</text></g></g></g></g><g clip-path="url(#clip6)"><g clip-path="url(#clip7)"><g clip-path="url(#clip8)"><g clip-path="url(#clip9)"><path d="M155.698 75.0638 809.964 75.0638 809.964 686.682 155.698 686.682Z" fill="#FFFFFF" transform="matrix(1 0 0 1.00063 1224.15 637.233)"/><path d="M249.155 237.853 249.155 102.848" stroke="#333333" stroke-width="5.5375" stroke-linejoin="round" stroke-miterlimit="10" fill="none" transform="matrix(1 0 0 1.00063 1224.15 637.233)"/><path d="M249.155 577.713 249.155 646.009" stroke="#333333" stroke-width="5.5375" stroke-linejoin="round" stroke-miterlimit="10" fill="none" transform="matrix(1 0 0 1.00063 1224.15 637.233)"/><path d="M190.736 237.853 190.736 577.713 307.574 577.713 307.574 237.853 190.736 237.853Z" stroke="#333333" stroke-width="5.5375" stroke-linecap="round" stroke-linejoin="round" stroke-miterlimit="10" fill="#999999" transform="matrix(1 0 0 1.00063 1224.15 637.233)"/><path d="M190.736 416.219 307.574 416.219" stroke="#333333" stroke-width="11.0426" stroke-linejoin="round" stroke-miterlimit="10" fill="none" transform="matrix(1 0 0 1.00063 1224.15 637.233)"/><path d="M404.95 269.168 404.95 163.923" stroke="#333333" stroke-width="5.5375" stroke-linejoin="round" stroke-miterlimit="10" fill="none" transform="matrix(1 0 0 1.00063 1224.15 637.233)"/><path d="M404.95 473.245 404.95 556.016" stroke="#333333" stroke-width="5.5375" stroke-linejoin="round" stroke-miterlimit="10" fill="none" transform="matrix(1 0 0 1.00063 1224.15 637.233)"/><path d="M346.531 269.168 346.531 473.245 463.369 473.245 463.369 269.168 346.531 269.168Z" stroke="#333333" stroke-width="5.5375" stroke-linecap="round" stroke-linejoin="round" stroke-miterlimit="10" fill="#E69F00" transform="matrix(1 0 0 1.00063 1224.15 637.233)"/><path d="M346.531 409.775 463.369 409.775" stroke="#333333" stroke-width="11.0426" stroke-linejoin="round" stroke-miterlimit="10" fill="none" transform="matrix(1 0 0 1.00063 1224.15 637.233)"/><path d="M560.712 511.036 560.712 398.538" stroke="#333333" stroke-width="5.5375" stroke-linejoin="round" stroke-miterlimit="10" fill="none" transform="matrix(1 0 0 1.00063 1224.15 637.233)"/><path d="M560.712 653.23 560.712 658.865" stroke="#333333" stroke-width="5.5375" stroke-linejoin="round" stroke-miterlimit="10" fill="none" transform="matrix(1 0 0 1.00063 1224.15 637.233)"/><path d="M502.293 511.036 502.293 653.23 619.131 653.23 619.131 511.036 502.293 511.036Z" stroke="#333333" stroke-width="5.5375" stroke-linecap="round" stroke-linejoin="round" stroke-miterlimit="10" fill="#56B4E9" transform="matrix(1 0 0 1.00063 1224.15 637.233)"/><path d="M502.293 573.698 619.131 573.698" stroke="#333333" stroke-width="11.0426" stroke-linejoin="round" stroke-miterlimit="10" fill="none" transform="matrix(1 0 0 1.00063 1224.15 637.233)"/><path d="M722.821 629.947C722.821 633.434 719.994 636.262 716.507 636.262 713.019 636.262 710.192 633.434 710.192 629.947 710.192 626.459 713.019 623.632 716.507 623.632 719.994 623.632 722.821 626.459 722.821 629.947Z" stroke="#333333" stroke-width="2.29919" stroke-linecap="round" stroke-linejoin="round" stroke-miterlimit="10" fill="#333333" transform="matrix(1 0 0 1.00063 1224.15 637.233)"/><path d="M716.507 361.589 716.507 289.278" stroke="#333333" stroke-width="5.5375" stroke-linejoin="round" stroke-miterlimit="10" fill="none" transform="matrix(1 0 0 1.00063 1224.15 637.233)"/><path d="M716.507 468.453 716.507 478.88" stroke="#333333" stroke-width="5.5375" stroke-linejoin="round" stroke-miterlimit="10" fill="none" transform="matrix(1 0 0 1.00063 1224.15 637.233)"/><path d="M658.088 361.589 658.088 468.453 774.926 468.453 774.926 361.589 658.088 361.589Z" stroke="#333333" stroke-width="5.5375" stroke-linecap="round" stroke-linejoin="round" stroke-miterlimit="10" fill="#009E73" transform="matrix(1 0 0 1.00063 1224.15 637.233)"/><path d="M658.088 411.394 774.926 411.394" stroke="#333333" stroke-width="11.0426" stroke-linejoin="round" stroke-miterlimit="10" fill="none" transform="matrix(1 0 0 1.00063 1224.15 637.233)"/><path d="M256.506 575.284C256.506 579.344 253.215 582.635 249.155 582.635 245.095 582.635 241.804 579.344 241.804 575.284 241.804 571.224 245.095 567.933 249.155 567.933 253.215 567.933 256.506 571.224 256.506 575.284Z" stroke="#000000" stroke-width="2.29919" stroke-linecap="round" stroke-linejoin="round" stroke-miterlimit="10" fill="#999999" transform="matrix(1 0 0 1.00063 1224.15 637.233)"/><path d="M256.506 578.523C256.506 582.582 253.215 585.874 249.155 585.874 245.095 585.874 241.804 582.582 241.804 578.523 241.804 574.463 245.095 571.172 249.155 571.172 253.215 571.172 256.506 574.463 256.506 578.523Z" stroke="#000000" stroke-width="2.29919" stroke-linecap="round" stroke-linejoin="round" stroke-miterlimit="10" fill="#999999" transform="matrix(1 0 0 1.00063 1224.15 637.233)"/><path d="M256.506 646.009C256.506 650.069 253.215 653.36 249.155 653.36 245.095 653.36 241.804 650.069 241.804 646.009 241.804 641.949 245.095 638.658 249.155 638.658 253.215 638.658 256.506 641.949 256.506 646.009Z" stroke="#000000" stroke-width="2.29919" stroke-linecap="round" stroke-linejoin="round" stroke-miterlimit="10" fill="#999999" transform="matrix(1 0 0 1.00063 1224.15 637.233)"/><path d="M256.506 102.848C256.506 106.908 253.215 110.199 249.155 110.199 245.095 110.199 241.804 106.908 241.804 102.848 241.804 98.7887 245.095 95.4975 249.155 95.4975 253.215 95.4975 256.506 98.7887 256.506 102.848Z" stroke="#000000" stroke-width="2.29919" stroke-linecap="round" stroke-linejoin="round" stroke-miterlimit="10" fill="#999999" transform="matrix(1 0 0 1.00063 1224.15 637.233)"/><path d="M256.506 257.121C256.506 261.181 253.215 264.472 249.155 264.472 245.095 264.472 241.804 261.181 241.804 257.121 241.804 253.061 245.095 249.77 249.155 249.77 253.215 249.77 256.506 253.061 256.506 257.121Z" stroke="#000000" stroke-width="2.29919" stroke-linecap="round" stroke-linejoin="round" stroke-miterlimit="10" fill="#999999" transform="matrix(1 0 0 1.00063 1224.15 637.233)"/><path d="M256.506 231.409C256.506 235.469 253.215 238.76 249.155 238.76 245.095 238.76 241.804 235.469 241.804 231.409 241.804 227.349 245.095 224.058 249.155 224.058 253.215 224.058 256.506 227.349 256.506 231.409Z" stroke="#000000" stroke-width="2.29919" stroke-linecap="round" stroke-linejoin="round" stroke-miterlimit="10" fill="#999999" transform="matrix(1 0 0 1.00063 1224.15 637.233)"/><path d="M412.301 478.88C412.301 482.94 409.009 486.231 404.95 486.231 400.89 486.231 397.599 482.94 397.599 478.88 397.599 474.82 400.89 471.529 404.95 471.529 409.009 471.529 412.301 474.82 412.301 478.88Z" stroke="#000000" stroke-width="2.29919" stroke-linecap="round" stroke-linejoin="round" stroke-miterlimit="10" fill="#E69F00" transform="matrix(1 0 0 1.00063 1224.15 637.233)"/><path d="M412.301 456.374C412.301 460.434 409.009 463.725 404.95 463.725 400.89 463.725 397.599 460.434 397.599 456.374 397.599 452.314 400.89 449.023 404.95 449.023 409.009 449.023 412.301 452.314 412.301 456.374Z" stroke="#000000" stroke-width="2.29919" stroke-linecap="round" stroke-linejoin="round" stroke-miterlimit="10" fill="#E69F00" transform="matrix(1 0 0 1.00063 1224.15 637.233)"/><path d="M412.301 556.016C412.301 560.076 409.009 563.367 404.95 563.367 400.89 563.367 397.599 560.076 397.599 556.016 397.599 551.957 400.89 548.665 404.95 548.665 409.009 548.665 412.301 551.957 412.301 556.016Z" stroke="#000000" stroke-width="2.29919" stroke-linecap="round" stroke-linejoin="round" stroke-miterlimit="10" fill="#E69F00" transform="matrix(1 0 0 1.00063 1224.15 637.233)"/><path d="M412.301 163.923C412.301 167.983 409.009 171.274 404.95 171.274 400.89 171.274 397.599 167.983 397.599 163.923 397.599 159.863 400.89 156.572 404.95 156.572 409.009 156.572 412.301 159.863 412.301 163.923Z" stroke="#000000" stroke-width="2.29919" stroke-linecap="round" stroke-linejoin="round" stroke-miterlimit="10" fill="#E69F00" transform="matrix(1 0 0 1.00063 1224.15 637.233)"/><path d="M412.301 237.853C412.301 241.913 409.009 245.204 404.95 245.204 400.89 245.204 397.599 241.913 397.599 237.853 397.599 233.793 400.89 230.502 404.95 230.502 409.009 230.502 412.301 233.793 412.301 237.853Z" stroke="#000000" stroke-width="2.29919" stroke-linecap="round" stroke-linejoin="round" stroke-miterlimit="10" fill="#E69F00" transform="matrix(1 0 0 1.00063 1224.15 637.233)"/><path d="M412.301 363.176C412.301 367.235 409.009 370.527 404.95 370.527 400.89 370.527 397.599 367.235 397.599 363.176 397.599 359.116 400.89 355.825 404.95 355.825 409.009 355.825 412.301 359.116 412.301 363.176Z" stroke="#000000" stroke-width="2.29919" stroke-linecap="round" stroke-linejoin="round" stroke-miterlimit="10" fill="#E69F00" transform="matrix(1 0 0 1.00063 1224.15 637.233)"/><path d="M568.063 658.865C568.063 662.925 564.772 666.216 560.712 666.216 556.652 666.216 553.361 662.925 553.361 658.865 553.361 654.805 556.652 651.514 560.712 651.514 564.772 651.514 568.063 654.805 568.063 658.865Z" stroke="#000000" stroke-width="2.29919" stroke-linecap="round" stroke-linejoin="round" stroke-miterlimit="10" fill="#56B4E9" transform="matrix(1 0 0 1.00063 1224.15 637.233)"/><path d="M568.063 636.359C568.063 640.419 564.772 643.71 560.712 643.71 556.652 643.71 553.361 640.419 553.361 636.359 553.361 632.299 556.652 629.008 560.712 629.008 564.772 629.008 568.063 632.299 568.063 636.359Z" stroke="#000000" stroke-width="2.29919" stroke-linecap="round" stroke-linejoin="round" stroke-miterlimit="10" fill="#56B4E9" transform="matrix(1 0 0 1.00063 1224.15 637.233)"/><path d="M568.063 658.865C568.063 662.925 564.772 666.216 560.712 666.216 556.652 666.216 553.361 662.925 553.361 658.865 553.361 654.805 556.652 651.514 560.712 651.514 564.772 651.514 568.063 654.805 568.063 658.865Z" stroke="#000000" stroke-width="2.29919" stroke-linecap="round" stroke-linejoin="round" stroke-miterlimit="10" fill="#56B4E9" transform="matrix(1 0 0 1.00063 1224.15 637.233)"/><path d="M568.063 511.036C568.063 515.096 564.772 518.387 560.712 518.387 556.652 518.387 553.361 515.096 553.361 511.036 553.361 506.977 556.652 503.685 560.712 503.685 564.772 503.685 568.063 506.977 568.063 511.036Z" stroke="#000000" stroke-width="2.29919" stroke-linecap="round" stroke-linejoin="round" stroke-miterlimit="10" fill="#56B4E9" transform="matrix(1 0 0 1.00063 1224.15 637.233)"/><path d="M568.063 511.036C568.063 515.096 564.772 518.387 560.712 518.387 556.652 518.387 553.361 515.096 553.361 511.036 553.361 506.977 556.652 503.685 560.712 503.685 564.772 503.685 568.063 506.977 568.063 511.036Z" stroke="#000000" stroke-width="2.29919" stroke-linecap="round" stroke-linejoin="round" stroke-miterlimit="10" fill="#56B4E9" transform="matrix(1 0 0 1.00063 1224.15 637.233)"/><path d="M568.063 398.538C568.063 402.598 564.772 405.889 560.712 405.889 556.652 405.889 553.361 402.598 553.361 398.538 553.361 394.478 556.652 391.187 560.712 391.187 564.772 391.187 568.063 394.478 568.063 398.538Z" stroke="#000000" stroke-width="2.29919" stroke-linecap="round" stroke-linejoin="round" stroke-miterlimit="10" fill="#56B4E9" transform="matrix(1 0 0 1.00063 1224.15 637.233)"/><path d="M723.858 629.947C723.858 634.007 720.567 637.298 716.507 637.298 712.447 637.298 709.156 634.007 709.156 629.947 709.156 625.887 712.447 622.596 716.507 622.596 720.567 622.596 723.858 625.887 723.858 629.947Z" stroke="#000000" stroke-width="2.29919" stroke-linecap="round" stroke-linejoin="round" stroke-miterlimit="10" fill="#009E73" transform="matrix(1 0 0 1.00063 1224.15 637.233)"/><path d="M723.858 385.682C723.858 389.742 720.567 393.033 716.507 393.033 712.447 393.033 709.156 389.742 709.156 385.682 709.156 381.622 712.447 378.331 716.507 378.331 720.567 378.331 723.858 381.622 723.858 385.682Z" stroke="#000000" stroke-width="2.29919" stroke-linecap="round" stroke-linejoin="round" stroke-miterlimit="10" fill="#009E73" transform="matrix(1 0 0 1.00063 1224.15 637.233)"/><path d="M723.858 478.88C723.858 482.94 720.567 486.231 716.507 486.231 712.447 486.231 709.156 482.94 709.156 478.88 709.156 474.82 712.447 471.529 716.507 471.529 720.567 471.529 723.858 474.82 723.858 478.88Z" stroke="#000000" stroke-width="2.29919" stroke-linecap="round" stroke-linejoin="round" stroke-miterlimit="10" fill="#009E73" transform="matrix(1 0 0 1.00063 1224.15 637.233)"/><path d="M723.858 437.106C723.858 441.166 720.567 444.457 716.507 444.457 712.447 444.457 709.156 441.166 709.156 437.106 709.156 433.046 712.447 429.755 716.507 429.755 720.567 429.755 723.858 433.046 723.858 437.106Z" stroke="#000000" stroke-width="2.29919" stroke-linecap="round" stroke-linejoin="round" stroke-miterlimit="10" fill="#009E73" transform="matrix(1 0 0 1.00063 1224.15 637.233)"/><path d="M723.858 289.278C723.858 293.337 720.567 296.628 716.507 296.628 712.447 296.628 709.156 293.337 709.156 289.278 709.156 285.218 712.447 281.927 716.507 281.927 720.567 281.927 723.858 285.218 723.858 289.278Z" stroke="#000000" stroke-width="2.29919" stroke-linecap="round" stroke-linejoin="round" stroke-miterlimit="10" fill="#009E73" transform="matrix(1 0 0 1.00063 1224.15 637.233)"/><path d="M723.858 353.525C723.858 357.585 720.567 360.876 716.507 360.876 712.447 360.876 709.156 357.585 709.156 353.525 709.156 349.466 712.447 346.174 716.507 346.174 720.567 346.174 723.858 349.466 723.858 353.525Z" stroke="#000000" stroke-width="2.29919" stroke-linecap="round" stroke-linejoin="round" stroke-miterlimit="10" fill="#009E73" transform="matrix(1 0 0 1.00063 1224.15 637.233)"/></g><g clip-path="url(#clip10)"><path d="M155.698 686.65 155.698 75.0638" stroke="#000000" stroke-width="5.5375" stroke-linejoin="round" stroke-miterlimit="10" fill="none" transform="matrix(1 0 0 1.00063 1224.15 637.233)"/><text font-family="Arial,Arial_MSFontService,sans-serif" font-weight="700" font-size="9" transform="matrix(3.2383 0 0 3.24035 1331.49 1288)">05<tspan font-size="9" x="-2.99998" y="0">.</tspan><tspan font-size="9" x="-7.99999" y="0">0</tspan><tspan font-size="9" x="0" y="-49.6859">10</tspan><tspan font-size="9" x="-2.99998" y="-49.6859">.</tspan><tspan font-size="9" x="-7.99999" y="-49.6859">0</tspan><tspan font-size="9" x="0" y="-99.3719">15</tspan><tspan font-size="9" x="-2.99998" y="-99.3719">.</tspan><tspan font-size="9" x="-7.99999" y="-99.3719">0</tspan><tspan font-size="9" x="0" y="-149.058">20</tspan><tspan font-size="9" x="-2.99998" y="-149.058">.</tspan><tspan font-size="9" x="-7.99999" y="-149.058">0</tspan></text><path d="M146.825 639.565 155.698 639.565" stroke="#333333" stroke-width="3.46498" stroke-linejoin="round" stroke-miterlimit="10" fill="none" transform="matrix(1 0 0 1.00063 1224.15 637.233)"/><path d="M146.825 478.88 155.698 478.88" stroke="#333333" stroke-width="3.46498" stroke-linejoin="round" stroke-miterlimit="10" fill="none" transform="matrix(1 0 0 1.00063 1224.15 637.233)"/><path d="M146.825 318.196 155.698 318.196" stroke="#333333" stroke-width="3.46498" stroke-linejoin="round" stroke-miterlimit="10" fill="none" transform="matrix(1 0 0 1.00063 1224.15 637.233)"/><path d="M146.825 157.479 155.698 157.479" stroke="#333333" stroke-width="3.46498" stroke-linejoin="round" stroke-miterlimit="10" fill="none" transform="matrix(1 0 0 1.00063 1224.15 637.233)"/><path d="M155.698 686.65 809.964 686.65" stroke="#000000" stroke-width="5.5375" stroke-linejoin="round" stroke-miterlimit="10" fill="none" transform="matrix(1 0 0 1.00063 1224.15 637.233)"/><path d="M249.155 695.523 249.155 686.65" stroke="#333333" stroke-width="3.46498" stroke-linejoin="round" stroke-miterlimit="10" fill="none" transform="matrix(1 0 0 1.00063 1224.15 637.233)"/><path d="M404.95 695.523 404.95 686.65" stroke="#333333" stroke-width="3.46498" stroke-linejoin="round" stroke-miterlimit="10" fill="none" transform="matrix(1 0 0 1.00063 1224.15 637.233)"/><path d="M560.712 695.523 560.712 686.65" stroke="#333333" stroke-width="3.46498" stroke-linejoin="round" stroke-miterlimit="10" fill="none" transform="matrix(1 0 0 1.00063 1224.15 637.233)"/><path d="M716.507 695.523 716.507 686.65" stroke="#333333" stroke-width="3.46498" stroke-linejoin="round" stroke-miterlimit="10" fill="none" transform="matrix(1 0 0 1.00063 1224.15 637.233)"/><text font-family="Arial,Arial_MSFontService,sans-serif" font-weight="700" font-size="9" transform="matrix(3.2383 0 0 3.24035 1416.63 1361)">Control<tspan font-size="9" x="50.11" y="0">0</tspan><tspan font-size="9" x="55.11" y="0">.</tspan><tspan font-size="9" x="58.11" y="0">1 </tspan><tspan font-size="9" x="66.11" y="0">mM</tspan><tspan font-size="9" x="54.61" y="9.87546">MeJA</tspan><tspan font-size="9" x="102.21" y="0">1 </tspan><tspan font-size="9" x="110.21" y="0">mM</tspan><tspan font-size="9" x="102.71" y="9.87546">MeJA</tspan><tspan font-size="9" x="134.32" y="0">P</tspan>. brassicae<tspan font-size="9" x="155.32" y="9.87546">OS</tspan></text><text font-family="Arial,Arial_MSFontService,sans-serif" font-weight="700" font-size="11" transform="matrix(1.98289e-16 -3.24035 3.2383 1.98414e-16 1267.41 1242)">inflorescence dry weight</text><text font-family="Arial,Arial_MSFontService,sans-serif" font-weight="400" font-size="13" transform="matrix(3.2383 0 0 3.24035 1379.84 686)">Atha</text></g></g></g></g><g clip-path="url(#clip11)"><g clip-path="url(#clip12)"><g clip-path="url(#clip13)"><g clip-path="url(#clip14)"><path d="M131.282 74.9904 809.171 74.9904 809.171 686.01 131.282 686.01Z" fill="#FFFFFF" transform="matrix(1.00219 0 0 1 1252.15 1301.09)"/><path d="M228.109 267.545 228.109 213.842" stroke="#333333" stroke-width="5.53208" stroke-linejoin="round" stroke-miterlimit="10" fill="none" transform="matrix(1.00219 0 0 1 1252.15 1301.09)"/><path d="M228.109 528.621 228.109 547.126" stroke="#333333" stroke-width="5.53208" stroke-linejoin="round" stroke-miterlimit="10" fill="none" transform="matrix(1.00219 0 0 1 1252.15 1301.09)"/><path d="M167.58 267.545 167.58 528.621 288.639 528.621 288.639 267.545 167.58 267.545Z" stroke="#333333" stroke-width="5.53208" stroke-linecap="round" stroke-linejoin="round" stroke-miterlimit="10" fill="#999999" transform="matrix(1.00219 0 0 1 1252.15 1301.09)"/><path d="M167.58 395.301 288.639 395.301" stroke="#333333" stroke-width="11.0318" stroke-linejoin="round" stroke-miterlimit="10" fill="none" transform="matrix(1.00219 0 0 1 1252.15 1301.09)"/><path d="M389.51 280.518 389.51 102.748" stroke="#333333" stroke-width="5.53208" stroke-linejoin="round" stroke-miterlimit="10" fill="none" transform="matrix(1.00219 0 0 1 1252.15 1301.09)"/><path d="M389.51 463.821 389.51 628.586" stroke="#333333" stroke-width="5.53208" stroke-linejoin="round" stroke-miterlimit="10" fill="none" transform="matrix(1.00219 0 0 1 1252.15 1301.09)"/><path d="M328.981 280.518 328.981 463.821 450.039 463.821 450.039 280.518 328.981 280.518Z" stroke="#333333" stroke-width="5.53208" stroke-linecap="round" stroke-linejoin="round" stroke-miterlimit="10" fill="#E69F00" transform="matrix(1.00219 0 0 1 1252.15 1301.09)"/><path d="M328.981 402.709 450.039 402.709" stroke="#333333" stroke-width="11.0318" stroke-linejoin="round" stroke-miterlimit="10" fill="none" transform="matrix(1.00219 0 0 1 1252.15 1301.09)"/><path d="M550.911 578.604 550.911 554.534" stroke="#333333" stroke-width="5.53208" stroke-linejoin="round" stroke-miterlimit="10" fill="none" transform="matrix(1.00219 0 0 1 1252.15 1301.09)"/><path d="M550.911 630.43 550.911 658.22" stroke="#333333" stroke-width="5.53208" stroke-linejoin="round" stroke-miterlimit="10" fill="none" transform="matrix(1.00219 0 0 1 1252.15 1301.09)"/><path d="M490.414 578.604 490.414 630.43 611.44 630.43 611.44 578.604 490.414 578.604Z" stroke="#333333" stroke-width="5.53208" stroke-linecap="round" stroke-linejoin="round" stroke-miterlimit="10" fill="#56B4E9" transform="matrix(1.00219 0 0 1 1252.15 1301.09)"/><path d="M490.414 610.081 611.44 610.081" stroke="#333333" stroke-width="11.0318" stroke-linejoin="round" stroke-miterlimit="10" fill="none" transform="matrix(1.00219 0 0 1 1252.15 1301.09)"/><path d="M712.344 347.162 712.344 199.025" stroke="#333333" stroke-width="5.53208" stroke-linejoin="round" stroke-miterlimit="10" fill="none" transform="matrix(1.00219 0 0 1 1252.15 1301.09)"/><path d="M712.344 458.257 712.344 561.943" stroke="#333333" stroke-width="5.53208" stroke-linejoin="round" stroke-miterlimit="10" fill="none" transform="matrix(1.00219 0 0 1 1252.15 1301.09)"/><path d="M651.815 347.162 651.815 458.257 772.841 458.257 772.841 347.162 651.815 347.162Z" stroke="#333333" stroke-width="5.53208" stroke-linecap="round" stroke-linejoin="round" stroke-miterlimit="10" fill="#009E73" transform="matrix(1.00219 0 0 1 1252.15 1301.09)"/><path d="M651.815 436.031 772.841 436.031" stroke="#333333" stroke-width="11.0318" stroke-linejoin="round" stroke-miterlimit="10" fill="none" transform="matrix(1.00219 0 0 1 1252.15 1301.09)"/><path d="M235.453 547.126C235.453 551.181 232.165 554.469 228.109 554.469 224.053 554.469 220.765 551.181 220.765 547.126 220.765 543.07 224.053 539.782 228.109 539.782 232.165 539.782 235.453 543.07 235.453 547.126Z" stroke="#000000" stroke-width="2.29694" stroke-linecap="round" stroke-linejoin="round" stroke-miterlimit="10" fill="#999999" transform="matrix(1.00219 0 0 1 1252.15 1301.09)"/><path d="M235.453 473.073C235.453 477.129 232.165 480.417 228.109 480.417 224.053 480.417 220.765 477.129 220.765 473.073 220.765 469.018 224.053 465.73 228.109 465.73 232.165 465.73 235.453 469.018 235.453 473.073Z" stroke="#000000" stroke-width="2.29694" stroke-linecap="round" stroke-linejoin="round" stroke-miterlimit="10" fill="#999999" transform="matrix(1.00219 0 0 1 1252.15 1301.09)"/><path d="M235.453 547.126C235.453 551.181 232.165 554.469 228.109 554.469 224.053 554.469 220.765 551.181 220.765 547.126 220.765 543.07 224.053 539.782 228.109 539.782 232.165 539.782 235.453 543.07 235.453 547.126Z" stroke="#000000" stroke-width="2.29694" stroke-linecap="round" stroke-linejoin="round" stroke-miterlimit="10" fill="#999999" transform="matrix(1.00219 0 0 1 1252.15 1301.09)"/><path d="M235.453 213.842C235.453 217.898 232.165 221.186 228.109 221.186 224.053 221.186 220.765 217.898 220.765 213.842 220.765 209.786 224.053 206.499 228.109 206.499 232.165 206.499 235.453 209.786 235.453 213.842Z" stroke="#000000" stroke-width="2.29694" stroke-linecap="round" stroke-linejoin="round" stroke-miterlimit="10" fill="#999999" transform="matrix(1.00219 0 0 1 1252.15 1301.09)"/><path d="M235.453 317.528C235.453 321.584 232.165 324.872 228.109 324.872 224.053 324.872 220.765 321.584 220.765 317.528 220.765 313.472 224.053 310.185 228.109 310.185 232.165 310.185 235.453 313.472 235.453 317.528Z" stroke="#000000" stroke-width="2.29694" stroke-linecap="round" stroke-linejoin="round" stroke-miterlimit="10" fill="#999999" transform="matrix(1.00219 0 0 1 1252.15 1301.09)"/><path d="M235.453 250.885C235.453 254.94 232.165 258.228 228.109 258.228 224.053 258.228 220.765 254.94 220.765 250.885 220.765 246.829 224.053 243.541 228.109 243.541 232.165 243.541 235.453 246.829 235.453 250.885Z" stroke="#000000" stroke-width="2.29694" stroke-linecap="round" stroke-linejoin="round" stroke-miterlimit="10" fill="#999999" transform="matrix(1.00219 0 0 1 1252.15 1301.09)"/><path d="M396.854 480.482C396.854 484.538 393.566 487.826 389.51 487.826 385.454 487.826 382.166 484.538 382.166 480.482 382.166 476.426 385.454 473.138 389.51 473.138 393.566 473.138 396.854 476.426 396.854 480.482Z" stroke="#000000" stroke-width="2.29694" stroke-linecap="round" stroke-linejoin="round" stroke-miterlimit="10" fill="#E69F00" transform="matrix(1.00219 0 0 1 1252.15 1301.09)"/><path d="M396.854 413.806C396.854 417.862 393.566 421.15 389.51 421.15 385.454 421.15 382.166 417.862 382.166 413.806 382.166 409.75 385.454 406.462 389.51 406.462 393.566 406.462 396.854 409.75 396.854 413.806Z" stroke="#000000" stroke-width="2.29694" stroke-linecap="round" stroke-linejoin="round" stroke-miterlimit="10" fill="#E69F00" transform="matrix(1.00219 0 0 1 1252.15 1301.09)"/><path d="M396.854 628.586C396.854 632.642 393.566 635.93 389.51 635.93 385.454 635.93 382.166 632.642 382.166 628.586 382.166 624.53 385.454 621.243 389.51 621.243 393.566 621.243 396.854 624.53 396.854 628.586Z" stroke="#000000" stroke-width="2.29694" stroke-linecap="round" stroke-linejoin="round" stroke-miterlimit="10" fill="#E69F00" transform="matrix(1.00219 0 0 1 1252.15 1301.09)"/><path d="M396.854 102.748C396.854 106.804 393.566 110.092 389.51 110.092 385.454 110.092 382.166 106.804 382.166 102.748 382.166 98.692 385.454 95.4041 389.51 95.4041 393.566 95.4041 396.854 98.692 396.854 102.748Z" stroke="#000000" stroke-width="2.29694" stroke-linecap="round" stroke-linejoin="round" stroke-miterlimit="10" fill="#E69F00" transform="matrix(1.00219 0 0 1 1252.15 1301.09)"/><path d="M396.854 243.476C396.854 247.532 393.566 250.82 389.51 250.82 385.454 250.82 382.166 247.532 382.166 243.476 382.166 239.42 385.454 236.132 389.51 236.132 393.566 236.132 396.854 239.42 396.854 243.476Z" stroke="#000000" stroke-width="2.29694" stroke-linecap="round" stroke-linejoin="round" stroke-miterlimit="10" fill="#E69F00" transform="matrix(1.00219 0 0 1 1252.15 1301.09)"/><path d="M396.854 391.58C396.854 395.636 393.566 398.924 389.51 398.924 385.454 398.924 382.166 395.636 382.166 391.58 382.166 387.525 385.454 384.237 389.51 384.237 393.566 384.237 396.854 387.525 396.854 391.58Z" stroke="#000000" stroke-width="2.29694" stroke-linecap="round" stroke-linejoin="round" stroke-miterlimit="10" fill="#E69F00" transform="matrix(1.00219 0 0 1 1252.15 1301.09)"/><path d="M558.255 635.995C558.255 640.051 554.967 643.339 550.911 643.339 546.855 643.339 543.567 640.051 543.567 635.995 543.567 631.939 546.855 628.651 550.911 628.651 554.967 628.651 558.255 631.939 558.255 635.995Z" stroke="#000000" stroke-width="2.29694" stroke-linecap="round" stroke-linejoin="round" stroke-miterlimit="10" fill="#56B4E9" transform="matrix(1.00219 0 0 1 1252.15 1301.09)"/><path d="M558.255 658.22C558.255 662.276 554.967 665.564 550.911 665.564 546.855 665.564 543.567 662.276 543.567 658.22 543.567 654.164 546.855 650.876 550.911 650.876 554.967 650.876 558.255 654.164 558.255 658.22Z" stroke="#000000" stroke-width="2.29694" stroke-linecap="round" stroke-linejoin="round" stroke-miterlimit="10" fill="#56B4E9" transform="matrix(1.00219 0 0 1 1252.15 1301.09)"/><path d="M558.255 613.769C558.255 617.825 554.967 621.113 550.911 621.113 546.855 621.113 543.567 617.825 543.567 613.769 543.567 609.714 546.855 606.426 550.911 606.426 554.967 606.426 558.255 609.714 558.255 613.769Z" stroke="#000000" stroke-width="2.29694" stroke-linecap="round" stroke-linejoin="round" stroke-miterlimit="10" fill="#56B4E9" transform="matrix(1.00219 0 0 1 1252.15 1301.09)"/><path d="M558.255 606.361C558.255 610.417 554.967 613.705 550.911 613.705 546.855 613.705 543.567 610.417 543.567 606.361 543.567 602.305 546.855 599.017 550.911 599.017 554.967 599.017 558.255 602.305 558.255 606.361Z" stroke="#000000" stroke-width="2.29694" stroke-linecap="round" stroke-linejoin="round" stroke-miterlimit="10" fill="#56B4E9" transform="matrix(1.00219 0 0 1 1252.15 1301.09)"/><path d="M558.255 554.534C558.255 558.59 554.967 561.878 550.911 561.878 546.855 561.878 543.567 558.59 543.567 554.534 543.567 550.478 546.855 547.19 550.911 547.19 554.967 547.19 558.255 550.478 558.255 554.534Z" stroke="#000000" stroke-width="2.29694" stroke-linecap="round" stroke-linejoin="round" stroke-miterlimit="10" fill="#56B4E9" transform="matrix(1.00219 0 0 1 1252.15 1301.09)"/><path d="M558.255 569.351C558.255 573.407 554.967 576.695 550.911 576.695 546.855 576.695 543.567 573.407 543.567 569.351 543.567 565.295 546.855 562.007 550.911 562.007 554.967 562.007 558.255 565.295 558.255 569.351Z" stroke="#000000" stroke-width="2.29694" stroke-linecap="round" stroke-linejoin="round" stroke-miterlimit="10" fill="#56B4E9" transform="matrix(1.00219 0 0 1 1252.15 1301.09)"/><path d="M719.688 436.031C719.688 440.087 716.4 443.375 712.344 443.375 708.288 443.375 705 440.087 705 436.031 705 431.975 708.288 428.687 712.344 428.687 716.4 428.687 719.688 431.975 719.688 436.031Z" stroke="#000000" stroke-width="2.29694" stroke-linecap="round" stroke-linejoin="round" stroke-miterlimit="10" fill="#009E73" transform="matrix(1.00219 0 0 1 1252.15 1301.09)"/><path d="M719.688 465.665C719.688 469.721 716.4 473.009 712.344 473.009 708.288 473.009 705 469.721 705 465.665 705 461.609 708.288 458.321 712.344 458.321 716.4 458.321 719.688 461.609 719.688 465.665Z" stroke="#000000" stroke-width="2.29694" stroke-linecap="round" stroke-linejoin="round" stroke-miterlimit="10" fill="#009E73" transform="matrix(1.00219 0 0 1 1252.15 1301.09)"/><path d="M719.688 561.943C719.688 565.998 716.4 569.286 712.344 569.286 708.288 569.286 705 565.998 705 561.943 705 557.887 708.288 554.599 712.344 554.599 716.4 554.599 719.688 557.887 719.688 561.943Z" stroke="#000000" stroke-width="2.29694" stroke-linecap="round" stroke-linejoin="round" stroke-miterlimit="10" fill="#009E73" transform="matrix(1.00219 0 0 1 1252.15 1301.09)"/><path d="M719.688 436.031C719.688 440.087 716.4 443.375 712.344 443.375 708.288 443.375 705 440.087 705 436.031 705 431.975 708.288 428.687 712.344 428.687 716.4 428.687 719.688 431.975 719.688 436.031Z" stroke="#000000" stroke-width="2.29694" stroke-linecap="round" stroke-linejoin="round" stroke-miterlimit="10" fill="#009E73" transform="matrix(1.00219 0 0 1 1252.15 1301.09)"/><path d="M719.688 199.025C719.688 203.081 716.4 206.369 712.344 206.369 708.288 206.369 705 203.081 705 199.025 705 194.97 708.288 191.682 712.344 191.682 716.4 191.682 719.688 194.97 719.688 199.025Z" stroke="#000000" stroke-width="2.29694" stroke-linecap="round" stroke-linejoin="round" stroke-miterlimit="10" fill="#009E73" transform="matrix(1.00219 0 0 1 1252.15 1301.09)"/><path d="M719.688 317.528C719.688 321.584 716.4 324.872 712.344 324.872 708.288 324.872 705 321.584 705 317.528 705 313.472 708.288 310.185 712.344 310.185 716.4 310.185 719.688 313.472 719.688 317.528Z" stroke="#000000" stroke-width="2.29694" stroke-linecap="round" stroke-linejoin="round" stroke-miterlimit="10" fill="#009E73" transform="matrix(1.00219 0 0 1 1252.15 1301.09)"/></g><g clip-path="url(#clip15)"><path d="M131.282 685.978 131.282 74.9904" stroke="#000000" stroke-width="5.53208" stroke-linejoin="round" stroke-miterlimit="10" fill="none" transform="matrix(1.00219 0 0 1 1252.15 1301.09)"/><text font-family="Arial,Arial_MSFontService,sans-serif" font-weight="700" font-size="9" transform="matrix(3.24221 0 0 3.23513 1351.52 1992)">0<tspan font-size="9" x="-5" y="-45.7477">20</tspan><tspan font-size="9" x="-5" y="-91.4955">40</tspan><tspan font-size="9" x="-5" y="-137.243">60</tspan><tspan font-size="9" x="-5" y="-183.3">80</tspan></text><path d="M122.417 680.445 131.282 680.445" stroke="#333333" stroke-width="3.46159" stroke-linejoin="round" stroke-miterlimit="10" fill="none" transform="matrix(1.00219 0 0 1 1252.15 1301.09)"/><path d="M122.417 532.309 131.282 532.309" stroke="#333333" stroke-width="3.46159" stroke-linejoin="round" stroke-miterlimit="10" fill="none" transform="matrix(1.00219 0 0 1 1252.15 1301.09)"/><path d="M122.417 384.204 131.282 384.204" stroke="#333333" stroke-width="3.46159" stroke-linejoin="round" stroke-miterlimit="10" fill="none" transform="matrix(1.00219 0 0 1 1252.15 1301.09)"/><path d="M122.417 236.068 131.282 236.068" stroke="#333333" stroke-width="3.46159" stroke-linejoin="round" stroke-miterlimit="10" fill="none" transform="matrix(1.00219 0 0 1 1252.15 1301.09)"/><path d="M122.417 87.9309 131.282 87.9309" stroke="#333333" stroke-width="3.46159" stroke-linejoin="round" stroke-miterlimit="10" fill="none" transform="matrix(1.00219 0 0 1 1252.15 1301.09)"/><path d="M131.282 685.978 809.171 685.978" stroke="#000000" stroke-width="5.53208" stroke-linejoin="round" stroke-miterlimit="10" fill="none" transform="matrix(1.00219 0 0 1 1252.15 1301.09)"/><path d="M228.109 694.842 228.109 685.978" stroke="#333333" stroke-width="3.46159" stroke-linejoin="round" stroke-miterlimit="10" fill="none" transform="matrix(1.00219 0 0 1 1252.15 1301.09)"/><path d="M389.51 694.842 389.51 685.978" stroke="#333333" stroke-width="3.46159" stroke-linejoin="round" stroke-miterlimit="10" fill="none" transform="matrix(1.00219 0 0 1 1252.15 1301.09)"/><path d="M550.911 694.842 550.911 685.978" stroke="#333333" stroke-width="3.46159" stroke-linejoin="round" stroke-miterlimit="10" fill="none" transform="matrix(1.00219 0 0 1 1252.15 1301.09)"/><path d="M712.344 694.842 712.344 685.978" stroke="#333333" stroke-width="3.46159" stroke-linejoin="round" stroke-miterlimit="10" fill="none" transform="matrix(1.00219 0 0 1 1252.15 1301.09)"/><text font-family="Arial,Arial_MSFontService,sans-serif" font-weight="700" font-size="9" transform="matrix(3.24221 0 0 3.23513 1424.01 2024)">Control<tspan font-size="9" x="51.89" y="0">0</tspan><tspan font-size="9" x="56.89" y="0">.</tspan><tspan font-size="9" x="59.89" y="0">1 </tspan><tspan font-size="9" x="67.89" y="0">mM</tspan><tspan font-size="9" x="56.39" y="9.5823">MeJA</tspan><tspan font-size="9" x="105.78" y="0">1 </tspan><tspan font-size="9" x="113.78" y="0">mM</tspan><tspan font-size="9" x="106.28" y="9.5823">MeJA</tspan><tspan font-size="9" x="139.68" y="0">P</tspan>. <tspan font-size="9" x="151.68" y="0">brassicae</tspan><tspan font-size="9" x="160.68" y="9.5823">OS</tspan></text><text font-family="Arial,Arial_MSFontService,sans-serif" font-weight="700" font-size="11" transform="matrix(1.98528e-16 -3.23513 3.24221 1.98095e-16 1295.46 1900)">number of siliques<tspan font-size="11" x="105.096" y="-6.43528e-15">/</tspan><tspan font-size="11" x="107.878" y="-6.60563e-15">plant</tspan></text><text font-family="Arial,Arial_MSFontService,sans-serif" font-weight="400" font-size="13" transform="matrix(3.24221 0 0 3.23513 1383.71 1349)">Atha</text></g></g></g></g><g clip-path="url(#clip16)"><g clip-path="url(#clip17)"><g clip-path="url(#clip18)"><g clip-path="url(#clip19)"><path d="M131.282 74.9904 809.171 74.9904 809.171 686.01 131.282 686.01Z" fill="#FFFFFF" transform="matrix(1.00098 0 0 1 154.145 1301.09)"/><path d="M228.109 137.623 228.109 102.748" stroke="#333333" stroke-width="5.53208" stroke-linejoin="round" stroke-miterlimit="10" fill="none" transform="matrix(1.00098 0 0 1 154.145 1301.09)"/><path d="M228.109 293.103 228.109 336.874" stroke="#333333" stroke-width="5.53208" stroke-linejoin="round" stroke-miterlimit="10" fill="none" transform="matrix(1.00098 0 0 1 154.145 1301.09)"/><path d="M167.58 137.623 167.58 293.103 288.639 293.103 288.639 137.623 167.58 137.623Z" stroke="#333333" stroke-width="5.53208" stroke-linecap="round" stroke-linejoin="round" stroke-miterlimit="10" fill="#999999" transform="matrix(1.00098 0 0 1 154.145 1301.09)"/><path d="M167.58 200.805 288.639 200.805" stroke="#333333" stroke-width="11.0318" stroke-linejoin="round" stroke-miterlimit="10" fill="none" transform="matrix(1.00098 0 0 1 154.145 1301.09)"/><path d="M389.51 167.645 389.51 116.853" stroke="#333333" stroke-width="5.53208" stroke-linejoin="round" stroke-miterlimit="10" fill="none" transform="matrix(1.00098 0 0 1 154.145 1301.09)"/><path d="M389.51 309.376 389.51 350.753" stroke="#333333" stroke-width="5.53208" stroke-linejoin="round" stroke-miterlimit="10" fill="none" transform="matrix(1.00098 0 0 1 154.145 1301.09)"/><path d="M328.981 167.645 328.981 309.376 450.039 309.376 450.039 167.645 328.981 167.645Z" stroke="#333333" stroke-width="5.53208" stroke-linecap="round" stroke-linejoin="round" stroke-miterlimit="10" fill="#E69F00" transform="matrix(1.00098 0 0 1 154.145 1301.09)"/><path d="M328.981 260.428 450.039 260.428" stroke="#333333" stroke-width="11.0318" stroke-linejoin="round" stroke-miterlimit="10" fill="none" transform="matrix(1.00098 0 0 1 154.145 1301.09)"/><path d="M550.911 433.314 550.911 277.283" stroke="#333333" stroke-width="5.53208" stroke-linejoin="round" stroke-miterlimit="10" fill="none" transform="matrix(1.00098 0 0 1 154.145 1301.09)"/><path d="M550.911 597.044 550.911 658.22" stroke="#333333" stroke-width="5.53208" stroke-linejoin="round" stroke-miterlimit="10" fill="none" transform="matrix(1.00098 0 0 1 154.145 1301.09)"/><path d="M490.414 433.314 490.414 597.044 611.44 597.044 611.44 433.314 490.414 433.314Z" stroke="#333333" stroke-width="5.53208" stroke-linecap="round" stroke-linejoin="round" stroke-miterlimit="10" fill="#56B4E9" transform="matrix(1.00098 0 0 1 154.145 1301.09)"/><path d="M490.414 483.329 611.44 483.329" stroke="#333333" stroke-width="11.0318" stroke-linejoin="round" stroke-miterlimit="10" fill="none" transform="matrix(1.00098 0 0 1 154.145 1301.09)"/><path d="M712.344 161.433 712.344 118.697" stroke="#333333" stroke-width="5.53208" stroke-linejoin="round" stroke-miterlimit="10" fill="none" transform="matrix(1.00098 0 0 1 154.145 1301.09)"/><path d="M712.344 335.936 712.344 409.309" stroke="#333333" stroke-width="5.53208" stroke-linejoin="round" stroke-miterlimit="10" fill="none" transform="matrix(1.00098 0 0 1 154.145 1301.09)"/><path d="M651.815 161.433 651.815 335.936 772.841 335.936 772.841 161.433 651.815 161.433Z" stroke="#333333" stroke-width="5.53208" stroke-linecap="round" stroke-linejoin="round" stroke-miterlimit="10" fill="#009E73" transform="matrix(1.00098 0 0 1 154.145 1301.09)"/><path d="M651.815 239.626 772.841 239.626" stroke="#333333" stroke-width="11.0318" stroke-linejoin="round" stroke-miterlimit="10" fill="none" transform="matrix(1.00098 0 0 1 154.145 1301.09)"/><path d="M235.453 200.805C235.453 204.861 232.165 208.148 228.109 208.148 224.053 208.148 220.765 204.861 220.765 200.805 220.765 196.749 224.053 193.461 228.109 193.461 232.165 193.461 235.453 196.749 235.453 200.805Z" stroke="#000000" stroke-width="2.29694" stroke-linecap="round" stroke-linejoin="round" stroke-miterlimit="10" fill="#999999" transform="matrix(1.00098 0 0 1 154.145 1301.09)"/><path d="M235.453 336.874C235.453 340.93 232.165 344.218 228.109 344.218 224.053 344.218 220.765 340.93 220.765 336.874 220.765 332.819 224.053 329.531 228.109 329.531 232.165 329.531 235.453 332.819 235.453 336.874Z" stroke="#000000" stroke-width="2.29694" stroke-linecap="round" stroke-linejoin="round" stroke-miterlimit="10" fill="#999999" transform="matrix(1.00098 0 0 1 154.145 1301.09)"/><path d="M235.453 137.623C235.453 141.678 232.165 144.966 228.109 144.966 224.053 144.966 220.765 141.678 220.765 137.623 220.765 133.567 224.053 130.279 228.109 130.279 232.165 130.279 235.453 133.567 235.453 137.623Z" stroke="#000000" stroke-width="2.29694" stroke-linecap="round" stroke-linejoin="round" stroke-miterlimit="10" fill="#999999" transform="matrix(1.00098 0 0 1 154.145 1301.09)"/><path d="M235.453 293.103C235.453 297.159 232.165 300.447 228.109 300.447 224.053 300.447 220.765 297.159 220.765 293.103 220.765 289.047 224.053 285.759 228.109 285.759 232.165 285.759 235.453 289.047 235.453 293.103Z" stroke="#000000" stroke-width="2.29694" stroke-linecap="round" stroke-linejoin="round" stroke-miterlimit="10" fill="#999999" transform="matrix(1.00098 0 0 1 154.145 1301.09)"/><path d="M235.453 102.748C235.453 106.804 232.165 110.092 228.109 110.092 224.053 110.092 220.765 106.804 220.765 102.748 220.765 98.692 224.053 95.4041 228.109 95.4041 232.165 95.4041 235.453 98.692 235.453 102.748Z" stroke="#000000" stroke-width="2.29694" stroke-linecap="round" stroke-linejoin="round" stroke-miterlimit="10" fill="#999999" transform="matrix(1.00098 0 0 1 154.145 1301.09)"/><path d="M396.854 281.909C396.854 285.965 393.566 289.253 389.51 289.253 385.454 289.253 382.166 285.965 382.166 281.909 382.166 277.854 385.454 274.566 389.51 274.566 393.566 274.566 396.854 277.854 396.854 281.909Z" stroke="#000000" stroke-width="2.29694" stroke-linecap="round" stroke-linejoin="round" stroke-miterlimit="10" fill="#E69F00" transform="matrix(1.00098 0 0 1 154.145 1301.09)"/><path d="M396.854 143.866C396.854 147.922 393.566 151.21 389.51 151.21 385.454 151.21 382.166 147.922 382.166 143.866 382.166 139.811 385.454 136.523 389.51 136.523 393.566 136.523 396.854 139.811 396.854 143.866Z" stroke="#000000" stroke-width="2.29694" stroke-linecap="round" stroke-linejoin="round" stroke-miterlimit="10" fill="#E69F00" transform="matrix(1.00098 0 0 1 154.145 1301.09)"/><path d="M396.854 116.853C396.854 120.909 393.566 124.197 389.51 124.197 385.454 124.197 382.166 120.909 382.166 116.853 382.166 112.797 385.454 109.509 389.51 109.509 393.566 109.509 396.854 112.797 396.854 116.853Z" stroke="#000000" stroke-width="2.29694" stroke-linecap="round" stroke-linejoin="round" stroke-miterlimit="10" fill="#E69F00" transform="matrix(1.00098 0 0 1 154.145 1301.09)"/><path d="M396.854 238.947C396.854 243.003 393.566 246.291 389.51 246.291 385.454 246.291 382.166 243.003 382.166 238.947 382.166 234.891 385.454 231.603 389.51 231.603 393.566 231.603 396.854 234.891 396.854 238.947Z" stroke="#000000" stroke-width="2.29694" stroke-linecap="round" stroke-linejoin="round" stroke-miterlimit="10" fill="#E69F00" transform="matrix(1.00098 0 0 1 154.145 1301.09)"/><path d="M396.854 318.531C396.854 322.587 393.566 325.875 389.51 325.875 385.454 325.875 382.166 322.587 382.166 318.531 382.166 314.475 385.454 311.187 389.51 311.187 393.566 311.187 396.854 314.475 396.854 318.531Z" stroke="#000000" stroke-width="2.29694" stroke-linecap="round" stroke-linejoin="round" stroke-miterlimit="10" fill="#E69F00" transform="matrix(1.00098 0 0 1 154.145 1301.09)"/><path d="M396.854 350.753C396.854 354.809 393.566 358.097 389.51 358.097 385.454 358.097 382.166 354.809 382.166 350.753 382.166 346.697 385.454 343.409 389.51 343.409 393.566 343.409 396.854 346.697 396.854 350.753Z" stroke="#000000" stroke-width="2.29694" stroke-linecap="round" stroke-linejoin="round" stroke-miterlimit="10" fill="#E69F00" transform="matrix(1.00098 0 0 1 154.145 1301.09)"/><path d="M558.255 629.46C558.255 633.516 554.967 636.804 550.911 636.804 546.855 636.804 543.567 633.516 543.567 629.46 543.567 625.404 546.855 622.116 550.911 622.116 554.967 622.116 558.255 625.404 558.255 629.46Z" stroke="#000000" stroke-width="2.29694" stroke-linecap="round" stroke-linejoin="round" stroke-miterlimit="10" fill="#56B4E9" transform="matrix(1.00098 0 0 1 154.145 1301.09)"/><path d="M558.255 466.83C558.255 470.886 554.967 474.173 550.911 474.173 546.855 474.173 543.567 470.886 543.567 466.83 543.567 462.774 546.855 459.486 550.911 459.486 554.967 459.486 558.255 462.774 558.255 466.83Z" stroke="#000000" stroke-width="2.29694" stroke-linecap="round" stroke-linejoin="round" stroke-miterlimit="10" fill="#56B4E9" transform="matrix(1.00098 0 0 1 154.145 1301.09)"/><path d="M558.255 277.283C558.255 281.339 554.967 284.627 550.911 284.627 546.855 284.627 543.567 281.339 543.567 277.283 543.567 273.227 546.855 269.939 550.911 269.939 554.967 269.939 558.255 273.227 558.255 277.283Z" stroke="#000000" stroke-width="2.29694" stroke-linecap="round" stroke-linejoin="round" stroke-miterlimit="10" fill="#56B4E9" transform="matrix(1.00098 0 0 1 154.145 1301.09)"/><path d="M558.255 658.22C558.255 662.276 554.967 665.564 550.911 665.564 546.855 665.564 543.567 662.276 543.567 658.22 543.567 654.164 546.855 650.876 550.911 650.876 554.967 650.876 558.255 654.164 558.255 658.22Z" stroke="#000000" stroke-width="2.29694" stroke-linecap="round" stroke-linejoin="round" stroke-miterlimit="10" fill="#56B4E9" transform="matrix(1.00098 0 0 1 154.145 1301.09)"/><path d="M558.255 422.12C558.255 426.176 554.967 429.464 550.911 429.464 546.855 429.464 543.567 426.176 543.567 422.12 543.567 418.064 546.855 414.776 550.911 414.776 554.967 414.776 558.255 418.064 558.255 422.12Z" stroke="#000000" stroke-width="2.29694" stroke-linecap="round" stroke-linejoin="round" stroke-miterlimit="10" fill="#56B4E9" transform="matrix(1.00098 0 0 1 154.145 1301.09)"/><path d="M558.255 499.86C558.255 503.916 554.967 507.204 550.911 507.204 546.855 507.204 543.567 503.916 543.567 499.86 543.567 495.804 546.855 492.517 550.911 492.517 554.967 492.517 558.255 495.804 558.255 499.86Z" stroke="#000000" stroke-width="2.29694" stroke-linecap="round" stroke-linejoin="round" stroke-miterlimit="10" fill="#56B4E9" transform="matrix(1.00098 0 0 1 154.145 1301.09)"/><path d="M719.688 118.697C719.688 122.753 716.4 126.041 712.344 126.041 708.288 126.041 705 122.753 705 118.697 705 114.641 708.288 111.353 712.344 111.353 716.4 111.353 719.688 114.641 719.688 118.697Z" stroke="#000000" stroke-width="2.29694" stroke-linecap="round" stroke-linejoin="round" stroke-miterlimit="10" fill="#009E73" transform="matrix(1.00098 0 0 1 154.145 1301.09)"/><path d="M719.688 409.309C719.688 413.365 716.4 416.653 712.344 416.653 708.288 416.653 705 413.365 705 409.309 705 405.253 708.288 401.965 712.344 401.965 716.4 401.965 719.688 405.253 719.688 409.309Z" stroke="#000000" stroke-width="2.29694" stroke-linecap="round" stroke-linejoin="round" stroke-miterlimit="10" fill="#009E73" transform="matrix(1.00098 0 0 1 154.145 1301.09)"/><path d="M719.688 348.553C719.688 352.609 716.4 355.897 712.344 355.897 708.288 355.897 705 352.609 705 348.553 705 344.497 708.288 341.209 712.344 341.209 716.4 341.209 719.688 344.497 719.688 348.553Z" stroke="#000000" stroke-width="2.29694" stroke-linecap="round" stroke-linejoin="round" stroke-miterlimit="10" fill="#009E73" transform="matrix(1.00098 0 0 1 154.145 1301.09)"/><path d="M719.688 181.167C719.688 185.223 716.4 188.511 712.344 188.511 708.288 188.511 705 185.223 705 181.167 705 177.112 708.288 173.824 712.344 173.824 716.4 173.824 719.688 177.112 719.688 181.167Z" stroke="#000000" stroke-width="2.29694" stroke-linecap="round" stroke-linejoin="round" stroke-miterlimit="10" fill="#009E73" transform="matrix(1.00098 0 0 1 154.145 1301.09)"/><path d="M719.688 154.833C719.688 158.889 716.4 162.177 712.344 162.177 708.288 162.177 705 158.889 705 154.833 705 150.778 708.288 147.49 712.344 147.49 716.4 147.49 719.688 150.778 719.688 154.833Z" stroke="#000000" stroke-width="2.29694" stroke-linecap="round" stroke-linejoin="round" stroke-miterlimit="10" fill="#009E73" transform="matrix(1.00098 0 0 1 154.145 1301.09)"/><path d="M719.688 298.085C719.688 302.141 716.4 305.429 712.344 305.429 708.288 305.429 705 302.141 705 298.085 705 294.029 708.288 290.741 712.344 290.741 716.4 290.741 719.688 294.029 719.688 298.085Z" stroke="#000000" stroke-width="2.29694" stroke-linecap="round" stroke-linejoin="round" stroke-miterlimit="10" fill="#009E73" transform="matrix(1.00098 0 0 1 154.145 1301.09)"/></g><g clip-path="url(#clip20)"><path d="M131.282 685.978 131.282 74.9904" stroke="#000000" stroke-width="5.53208" stroke-linejoin="round" stroke-miterlimit="10" fill="none" transform="matrix(1.00098 0 0 1 154.145 1301.09)"/><text font-family="Arial,Arial_MSFontService,sans-serif" font-weight="700" font-size="9" transform="matrix(3.2383 0 0 3.23513 237.207 1887)">50<tspan font-size="9" x="0" y="-35.5472">60</tspan><tspan font-size="9" x="0" y="-71.4036">70</tspan><tspan font-size="9" x="0" y="-106.951">80</tspan><tspan font-size="9" x="0" y="-142.807">90</tspan></text><path d="M122.417 575.854 131.282 575.854" stroke="#333333" stroke-width="3.46159" stroke-linejoin="round" stroke-miterlimit="10" fill="none" transform="matrix(1.00098 0 0 1 154.145 1301.09)"/><path d="M122.417 460.359 131.282 460.359" stroke="#333333" stroke-width="3.46159" stroke-linejoin="round" stroke-miterlimit="10" fill="none" transform="matrix(1.00098 0 0 1 154.145 1301.09)"/><path d="M122.417 344.865 131.282 344.865" stroke="#333333" stroke-width="3.46159" stroke-linejoin="round" stroke-miterlimit="10" fill="none" transform="matrix(1.00098 0 0 1 154.145 1301.09)"/><path d="M122.417 229.339 131.282 229.339" stroke="#333333" stroke-width="3.46159" stroke-linejoin="round" stroke-miterlimit="10" fill="none" transform="matrix(1.00098 0 0 1 154.145 1301.09)"/><path d="M122.417 113.844 131.282 113.844" stroke="#333333" stroke-width="3.46159" stroke-linejoin="round" stroke-miterlimit="10" fill="none" transform="matrix(1.00098 0 0 1 154.145 1301.09)"/><path d="M131.282 685.978 809.171 685.978" stroke="#000000" stroke-width="5.53208" stroke-linejoin="round" stroke-miterlimit="10" fill="none" transform="matrix(1.00098 0 0 1 154.145 1301.09)"/><path d="M228.109 694.842 228.109 685.978" stroke="#333333" stroke-width="3.46159" stroke-linejoin="round" stroke-miterlimit="10" fill="none" transform="matrix(1.00098 0 0 1 154.145 1301.09)"/><path d="M389.51 694.842 389.51 685.978" stroke="#333333" stroke-width="3.46159" stroke-linejoin="round" stroke-miterlimit="10" fill="none" transform="matrix(1.00098 0 0 1 154.145 1301.09)"/><path d="M550.911 694.842 550.911 685.978" stroke="#333333" stroke-width="3.46159" stroke-linejoin="round" stroke-miterlimit="10" fill="none" transform="matrix(1.00098 0 0 1 154.145 1301.09)"/><path d="M712.344 694.842 712.344 685.978" stroke="#333333" stroke-width="3.46159" stroke-linejoin="round" stroke-miterlimit="10" fill="none" transform="matrix(1.00098 0 0 1 154.145 1301.09)"/><text font-family="Arial,Arial_MSFontService,sans-serif" font-weight="700" font-size="9" transform="matrix(3.2383 0 0 3.23513 325.807 2024)">Control<tspan font-size="9" x="51.89" y="0">0</tspan>.1 mM<tspan font-size="9" x="56.39" y="9.5823">MeJA</tspan><tspan font-size="9" x="105.78" y="0">1 </tspan><tspan font-size="9" x="113.78" y="0">mM</tspan><tspan font-size="9" x="106.28" y="9.5823">MeJA</tspan><tspan font-size="9" x="139.68" y="0">P</tspan>. <tspan font-size="9" x="151.68" y="0">brassicae</tspan><tspan font-size="9" x="160.68" y="9.5823">OS</tspan></text><text font-family="Arial,Arial_MSFontService,sans-serif" font-weight="700" font-size="11" transform="matrix(1.98289e-16 -3.23513 3.2383 1.98095e-16 197.409 1814)">Leaf area<tspan font-size="11" x="51.0025" y="-3.12301e-15">(</tspan><tspan font-size="11" x="55.0209" y="-3.36906e-15">cm</tspan><tspan font-size="11" x="72.0218" y="-4.41006e-15">2</tspan><tspan font-size="11" x="77.8948" y="-4.76968e-15">)</tspan></text><text font-family="Arial,Arial_MSFontService,sans-serif" font-weight="400" font-size="13" transform="matrix(3.2383 0 0 3.23513 285.555 1349)">Bole</text></g></g></g></g><text font-family="Arial,Arial_MSFontService,sans-serif" font-style="italic" font-weight="700" font-size="64" transform="matrix(1 0 0 1 441.838 596)">B. oleracea<tspan font-size="64" x="1129.26" y="0">A. thaliana</tspan><tspan font-style="normal" font-size="55" x="-370.366" y="91">a)</tspan><tspan font-style="normal" font-size="55" x="-384.763" y="795">b)</tspan><tspan font-style="normal" font-size="55" x="700.221" y="91">c)</tspan><tspan font-style="normal" font-size="55" x="700.221" y="793">d)</tspan><tspan font-style="normal" font-size="37" x="247.464" y="274">b</tspan><tspan font-style="normal" font-size="37" x="86.835" y="111">a</tspan><tspan font-style="normal" font-size="37" x="-70.9406" y="110">a</tspan><tspan font-style="normal" font-size="37" x="402.386" y="111">a</tspan><tspan font-style="normal" font-size="37" x="1332.59" y="410">b</tspan><tspan font-style="normal" font-size="37" x="1177.39" y="161">a</tspan><tspan font-style="normal" font-size="37" x="1018.98" y="110">a</tspan><tspan font-style="normal" font-size="37" x="1488.36" y="274">a</tspan><tspan font-style="normal" font-size="37" x="250.828" y="952">b</tspan><tspan font-style="normal" font-size="37" x="90.1989" y="789">a</tspan><tspan font-style="normal" font-size="37" x="-67.5768" y="787">a</tspan><tspan font-style="normal" font-size="37" x="412.191" y="793">a</tspan><tspan font-style="normal" font-size="37" x="1346.34" y="1223">b</tspan><tspan font-style="normal" font-size="37" x="1189.76" y="789">a</tspan><tspan font-style="normal" font-size="37" x="1027.38" y="888">a</tspan><tspan font-style="normal" font-size="37" x="1508.18" y="854">a</tspan></text></g></svg>