<svg width="2072" height="1591" xmlns="http://www.w3.org/2000/svg" xmlns:xlink="http://www.w3.org/1999/xlink" overflow="hidden"><defs><clipPath id="clip0"><rect x="2200" y="514" width="2072" height="1591"/></clipPath><clipPath id="clip1"><rect x="2302" y="678" width="828" height="641"/></clipPath><clipPath id="clip2"><rect x="2302" y="678" width="828" height="641"/></clipPath><clipPath id="clip3"><rect x="2302" y="623" width="828" height="823"/></clipPath><clipPath id="clip4"><rect x="2417" y="698" width="696" height="614"/></clipPath><clipPath id="clip5"><rect x="2302" y="623" width="828" height="823"/></clipPath><clipPath id="clip6"><rect x="2302" y="1348" width="828" height="758"/></clipPath><clipPath id="clip7"><rect x="2302" y="1348" width="828" height="758"/></clipPath><clipPath id="clip8"><rect x="2302" y="1285" width="828" height="821"/></clipPath><clipPath id="clip9"><rect x="2417" y="1360" width="696" height="612"/></clipPath><clipPath id="clip10"><rect x="2302" y="1285" width="828" height="821"/></clipPath><clipPath id="clip11"><rect x="3444" y="668" width="829" height="641"/></clipPath><clipPath id="clip12"><rect x="3444" y="668" width="829" height="641"/></clipPath><clipPath id="clip13"><rect x="3444" y="613" width="829" height="823"/></clipPath><clipPath id="clip14"><rect x="3559" y="688" width="696" height="614"/></clipPath><clipPath id="clip15"><rect x="3444" y="613" width="828" height="823"/></clipPath><clipPath id="clip16"><rect x="3433" y="1339" width="829" height="767"/></clipPath><clipPath id="clip17"><rect x="3433" y="1339" width="829" height="767"/></clipPath><clipPath id="clip18"><rect x="3433" y="1284" width="829" height="822"/></clipPath><clipPath id="clip19"><rect x="3564" y="1359" width="680" height="613"/></clipPath><clipPath id="clip20"><rect x="3433" y="1284" width="828" height="822"/></clipPath></defs><g clip-path="url(#clip0)" transform="translate(-2200 -514)"><g clip-path="url(#clip1)"><g clip-path="url(#clip2)"><g clip-path="url(#clip3)"><g clip-path="url(#clip4)"><path d="M115.186 75.0638 809.964 75.0638 809.964 686.682 115.186 686.682Z" fill="#FFFFFF" transform="matrix(1 0 0 1.00122 2302.15 623.682)"/><path d="M140.024 551.062 288.889 551.062 288.889 686.65 140.024 686.65Z" stroke="#000000" stroke-width="5.5375" stroke-linecap="square" stroke-miterlimit="10" fill="#999999" transform="matrix(1 0 0 1.00122 2302.15 623.682)"/><path d="M305.437 512.688 454.301 512.688 454.301 686.682 305.437 686.682Z" stroke="#000000" stroke-width="5.5375" stroke-linecap="square" stroke-miterlimit="10" fill="#E69F00" transform="matrix(1 0 0 1.00122 2302.15 623.682)"/><path d="M470.849 272.471 619.714 272.471 619.714 686.65 470.849 686.65Z" stroke="#000000" stroke-width="5.5375" stroke-linecap="square" stroke-miterlimit="10" fill="#56B4E9" transform="matrix(1 0 0 1.00122 2302.15 623.682)"/><path d="M636.262 486.393 785.126 486.393 785.126 686.65 636.262 686.65Z" stroke="#000000" stroke-width="5.5375" stroke-linecap="square" stroke-miterlimit="10" fill="#009E73" transform="matrix(1 0 0 1.00122 2302.15 623.682)"/><path d="M181.377 507.863 247.536 507.863" stroke="#000000" stroke-width="5.5375" stroke-linejoin="round" stroke-miterlimit="10" fill="none" transform="matrix(1 0 0 1.00122 2302.15 623.682)"/><path d="M214.44 507.863 214.44 594.293" stroke="#000000" stroke-width="5.5375" stroke-linejoin="round" stroke-miterlimit="10" fill="none" transform="matrix(1 0 0 1.00122 2302.15 623.682)"/><path d="M181.377 594.293 247.536 594.293" stroke="#000000" stroke-width="5.5375" stroke-linejoin="round" stroke-miterlimit="10" fill="none" transform="matrix(1 0 0 1.00122 2302.15 623.682)"/><path d="M346.79 492.61 412.948 492.61" stroke="#000000" stroke-width="5.5375" stroke-linejoin="round" stroke-miterlimit="10" fill="none" transform="matrix(1 0 0 1.00122 2302.15 623.682)"/><path d="M379.885 492.61 379.885 532.733" stroke="#000000" stroke-width="5.5375" stroke-linejoin="round" stroke-miterlimit="10" fill="none" transform="matrix(1 0 0 1.00122 2302.15 623.682)"/><path d="M346.79 532.733 412.948 532.733" stroke="#000000" stroke-width="5.5375" stroke-linejoin="round" stroke-miterlimit="10" fill="none" transform="matrix(1 0 0 1.00122 2302.15 623.682)"/><path d="M512.202 165.51 578.361 165.51" stroke="#000000" stroke-width="5.5375" stroke-linejoin="round" stroke-miterlimit="10" fill="none" transform="matrix(1 0 0 1.00122 2302.15 623.682)"/><path d="M545.298 165.51 545.298 379.464" stroke="#000000" stroke-width="5.5375" stroke-linejoin="round" stroke-miterlimit="10" fill="none" transform="matrix(1 0 0 1.00122 2302.15 623.682)"/><path d="M512.202 379.464 578.361 379.464" stroke="#000000" stroke-width="5.5375" stroke-linejoin="round" stroke-miterlimit="10" fill="none" transform="matrix(1 0 0 1.00122 2302.15 623.682)"/><path d="M677.615 443.647 743.806 443.647" stroke="#000000" stroke-width="5.5375" stroke-linejoin="round" stroke-miterlimit="10" fill="none" transform="matrix(1 0 0 1.00122 2302.15 623.682)"/><path d="M710.71 443.647 710.71 529.139" stroke="#000000" stroke-width="5.5375" stroke-linejoin="round" stroke-miterlimit="10" fill="none" transform="matrix(1 0 0 1.00122 2302.15 623.682)"/><path d="M677.615 529.139 743.806 529.139" stroke="#000000" stroke-width="5.5375" stroke-linejoin="round" stroke-miterlimit="10" fill="none" transform="matrix(1 0 0 1.00122 2302.15 623.682)"/></g><g clip-path="url(#clip5)"><path d="M115.186 686.65 115.186 75.0638" stroke="#000000" stroke-width="5.5375" stroke-linejoin="round" stroke-miterlimit="10" fill="none" transform="matrix(1 0 0 1.00122 2302.15 623.682)"/><text font-family="Arial,Arial_MSFontService,sans-serif" font-weight="700" font-size="9" transform="matrix(3.2383 0 0 3.24224 2385.18 1322)">0<tspan font-size="9" x="0" y="-31.4597">1</tspan><tspan font-size="9" x="0" y="-62.9194">2</tspan><tspan font-size="9" x="0" y="-94.6876">3</tspan><tspan font-size="9" x="0" y="-126.147">4</tspan><tspan font-size="9" x="0" y="-157.607">5</tspan><tspan font-size="9" x="0" y="-189.067">6</tspan></text><path d="M106.313 686.65 115.186 686.65" stroke="#333333" stroke-width="3.46498" stroke-linejoin="round" stroke-miterlimit="10" fill="none" transform="matrix(1 0 0 1.00122 2302.15 623.682)"/><path d="M106.313 584.74 115.186 584.74" stroke="#333333" stroke-width="3.46498" stroke-linejoin="round" stroke-miterlimit="10" fill="none" transform="matrix(1 0 0 1.00122 2302.15 623.682)"/><path d="M106.313 482.798 115.186 482.798" stroke="#333333" stroke-width="3.46498" stroke-linejoin="round" stroke-miterlimit="10" fill="none" transform="matrix(1 0 0 1.00122 2302.15 623.682)"/><path d="M106.313 380.857 115.186 380.857" stroke="#333333" stroke-width="3.46498" stroke-linejoin="round" stroke-miterlimit="10" fill="none" transform="matrix(1 0 0 1.00122 2302.15 623.682)"/><path d="M106.313 278.915 115.186 278.915" stroke="#333333" stroke-width="3.46498" stroke-linejoin="round" stroke-miterlimit="10" fill="none" transform="matrix(1 0 0 1.00122 2302.15 623.682)"/><path d="M106.313 177.006 115.186 177.006" stroke="#333333" stroke-width="3.46498" stroke-linejoin="round" stroke-miterlimit="10" fill="none" transform="matrix(1 0 0 1.00122 2302.15 623.682)"/><path d="M106.313 75.0638 115.186 75.0638" stroke="#333333" stroke-width="3.46498" stroke-linejoin="round" stroke-miterlimit="10" fill="none" transform="matrix(1 0 0 1.00122 2302.15 623.682)"/><path d="M115.186 686.65 809.964 686.65" stroke="#000000" stroke-width="5.5375" stroke-linejoin="round" stroke-miterlimit="10" fill="none" transform="matrix(1 0 0 1.00122 2302.15 623.682)"/><path d="M214.44 695.523 214.44 686.65" stroke="#333333" stroke-width="3.46498" stroke-linejoin="round" stroke-miterlimit="10" fill="none" transform="matrix(1 0 0 1.00122 2302.15 623.682)"/><path d="M379.885 695.523 379.885 686.65" stroke="#333333" stroke-width="3.46498" stroke-linejoin="round" stroke-miterlimit="10" fill="none" transform="matrix(1 0 0 1.00122 2302.15 623.682)"/><path d="M545.298 695.523 545.298 686.65" stroke="#333333" stroke-width="3.46498" stroke-linejoin="round" stroke-miterlimit="10" fill="none" transform="matrix(1 0 0 1.00122 2302.15 623.682)"/><path d="M710.71 695.523 710.71 686.65" stroke="#333333" stroke-width="3.46498" stroke-linejoin="round" stroke-miterlimit="10" fill="none" transform="matrix(1 0 0 1.00122 2302.15 623.682)"/><text font-family="Arial,Arial_MSFontService,sans-serif" font-weight="700" font-size="9" transform="matrix(3.2383 0 0 3.24224 2459.92 1348)">Control<tspan font-size="9" x="53.09" y="0">0</tspan><tspan font-size="9" x="58.09" y="0">.</tspan><tspan font-size="9" x="61.09" y="0">1 </tspan><tspan font-size="9" x="69.09" y="0">mM</tspan><tspan font-size="9" x="57.59" y="9.86971">MeJA</tspan><tspan font-size="9" x="108.17" y="0">1 </tspan><tspan font-size="9" x="116.17" y="0">mM</tspan><tspan font-size="9" x="108.67" y="9.86971">MeJA</tspan><tspan font-size="9" x="143.25" y="0">P</tspan><tspan font-size="9" x="149.25" y="0">. </tspan><tspan font-size="9" x="155.25" y="0">brassicae</tspan><tspan font-size="9" x="164.25" y="9.86971">OS</tspan></text><text font-family="Arial,Arial_MSFontService,sans-serif" font-weight="700" font-size="11" transform="matrix(1.98289e-16 -3.24224 3.2383 1.9853e-16 2345.41 1251)">relative expression of LOX<tspan font-size="11" x="145.887" y="-8.93298e-15">2</tspan></text><text font-family="Arial,Arial_MSFontService,sans-serif" font-weight="400" font-size="13" transform="matrix(3.2383 0 0 3.24224 2417.33 672)">Bole</text></g></g></g></g><g clip-path="url(#clip6)"><g clip-path="url(#clip7)"><g clip-path="url(#clip8)"><g clip-path="url(#clip9)"><path d="M115.074 74.9904 809.172 74.9904 809.172 686.01 115.074 686.01Z" fill="#FFFFFF" transform="matrix(1.00098 0 0 1 2302.15 1285.09)"/><path d="M139.887 370.682 288.606 370.682 288.606 685.978 139.887 685.978Z" stroke="#000000" stroke-width="5.53208" stroke-linecap="square" stroke-miterlimit="10" fill="#999999" transform="matrix(1.00098 0 0 1 2302.15 1285.09)"/><path d="M305.138 480.612 453.857 480.612 453.857 685.978 305.138 685.978Z" stroke="#000000" stroke-width="5.53208" stroke-linecap="square" stroke-miterlimit="10" fill="#E69F00" transform="matrix(1.00098 0 0 1 2302.15 1285.09)"/><path d="M470.389 443.44 619.108 443.44 619.108 685.978 470.389 685.978Z" stroke="#000000" stroke-width="5.53208" stroke-linecap="square" stroke-miterlimit="10" fill="#56B4E9" transform="matrix(1.00098 0 0 1 2302.15 1285.09)"/><path d="M635.639 489.249 784.358 489.249 784.358 685.978 635.639 685.978Z" stroke="#000000" stroke-width="5.53208" stroke-linecap="square" stroke-miterlimit="10" fill="#009E73" transform="matrix(1.00098 0 0 1 2302.15 1285.09)"/><path d="M181.2 222.254 247.294 222.254" stroke="#000000" stroke-width="5.53208" stroke-linejoin="round" stroke-miterlimit="10" fill="none" transform="matrix(1.00098 0 0 1 2302.15 1285.09)"/><path d="M214.231 222.254 214.231 519.11" stroke="#000000" stroke-width="5.53208" stroke-linejoin="round" stroke-miterlimit="10" fill="none" transform="matrix(1.00098 0 0 1 2302.15 1285.09)"/><path d="M181.2 519.11 247.294 519.11" stroke="#000000" stroke-width="5.53208" stroke-linejoin="round" stroke-miterlimit="10" fill="none" transform="matrix(1.00098 0 0 1 2302.15 1285.09)"/><path d="M346.451 448.875 412.544 448.875" stroke="#000000" stroke-width="5.53208" stroke-linejoin="round" stroke-miterlimit="10" fill="none" transform="matrix(1.00098 0 0 1 2302.15 1285.09)"/><path d="M379.514 448.875 379.514 512.348" stroke="#000000" stroke-width="5.53208" stroke-linejoin="round" stroke-miterlimit="10" fill="none" transform="matrix(1.00098 0 0 1 2302.15 1285.09)"/><path d="M346.451 512.348 412.544 512.348" stroke="#000000" stroke-width="5.53208" stroke-linejoin="round" stroke-miterlimit="10" fill="none" transform="matrix(1.00098 0 0 1 2302.15 1285.09)"/><path d="M511.701 367.608 577.795 367.608" stroke="#000000" stroke-width="5.53208" stroke-linejoin="round" stroke-miterlimit="10" fill="none" transform="matrix(1.00098 0 0 1 2302.15 1285.09)"/><path d="M544.764 367.608 544.764 519.304" stroke="#000000" stroke-width="5.53208" stroke-linejoin="round" stroke-miterlimit="10" fill="none" transform="matrix(1.00098 0 0 1 2302.15 1285.09)"/><path d="M511.701 519.304 577.795 519.304" stroke="#000000" stroke-width="5.53208" stroke-linejoin="round" stroke-miterlimit="10" fill="none" transform="matrix(1.00098 0 0 1 2302.15 1285.09)"/><path d="M676.952 443.796 743.078 443.796" stroke="#000000" stroke-width="5.53208" stroke-linejoin="round" stroke-miterlimit="10" fill="none" transform="matrix(1.00098 0 0 1 2302.15 1285.09)"/><path d="M710.015 443.796 710.015 534.703" stroke="#000000" stroke-width="5.53208" stroke-linejoin="round" stroke-miterlimit="10" fill="none" transform="matrix(1.00098 0 0 1 2302.15 1285.09)"/><path d="M676.952 534.703 743.078 534.703" stroke="#000000" stroke-width="5.53208" stroke-linejoin="round" stroke-miterlimit="10" fill="none" transform="matrix(1.00098 0 0 1 2302.15 1285.09)"/></g><g clip-path="url(#clip10)"><path d="M115.074 685.978 115.074 74.9904" stroke="#000000" stroke-width="5.53208" stroke-linejoin="round" stroke-miterlimit="10" fill="none" transform="matrix(1.00098 0 0 1 2302.15 1285.09)"/><text font-family="Arial,Arial_MSFontService,sans-serif" font-weight="700" font-size="9" transform="matrix(3.2383 0 0 3.23513 2385.18 1982)">0<tspan font-size="9" x="0" y="-63.0577">1</tspan><tspan font-size="9" x="0" y="-126.115">2</tspan><tspan font-size="9" x="0" y="-189.173">3</tspan></text><path d="M106.209 685.978 115.074 685.978" stroke="#333333" stroke-width="3.46159" stroke-linejoin="round" stroke-miterlimit="10" fill="none" transform="matrix(1.00098 0 0 1 2302.15 1285.09)"/><path d="M106.209 482.326 115.074 482.326" stroke="#333333" stroke-width="3.46159" stroke-linejoin="round" stroke-miterlimit="10" fill="none" transform="matrix(1.00098 0 0 1 2302.15 1285.09)"/><path d="M106.209 278.642 115.074 278.642" stroke="#333333" stroke-width="3.46159" stroke-linejoin="round" stroke-miterlimit="10" fill="none" transform="matrix(1.00098 0 0 1 2302.15 1285.09)"/><path d="M106.209 74.9904 115.074 74.9904" stroke="#333333" stroke-width="3.46159" stroke-linejoin="round" stroke-miterlimit="10" fill="none" transform="matrix(1.00098 0 0 1 2302.15 1285.09)"/><path d="M115.074 685.978 809.172 685.978" stroke="#000000" stroke-width="5.53208" stroke-linejoin="round" stroke-miterlimit="10" fill="none" transform="matrix(1.00098 0 0 1 2302.15 1285.09)"/><path d="M214.231 694.842 214.231 685.978" stroke="#333333" stroke-width="3.46159" stroke-linejoin="round" stroke-miterlimit="10" fill="none" transform="matrix(1.00098 0 0 1 2302.15 1285.09)"/><path d="M379.514 694.842 379.514 685.978" stroke="#333333" stroke-width="3.46159" stroke-linejoin="round" stroke-miterlimit="10" fill="none" transform="matrix(1.00098 0 0 1 2302.15 1285.09)"/><path d="M544.764 694.842 544.764 685.978" stroke="#333333" stroke-width="3.46159" stroke-linejoin="round" stroke-miterlimit="10" fill="none" transform="matrix(1.00098 0 0 1 2302.15 1285.09)"/><path d="M710.015 694.842 710.015 685.978" stroke="#333333" stroke-width="3.46159" stroke-linejoin="round" stroke-miterlimit="10" fill="none" transform="matrix(1.00098 0 0 1 2302.15 1285.09)"/><text font-family="Arial,Arial_MSFontService,sans-serif" font-weight="700" font-size="9" transform="matrix(3.2383 0 0 3.23513 2459.92 2008)">Control<tspan font-size="9" x="53.09" y="0">0</tspan><tspan font-size="9" x="58.09" y="0">.</tspan><tspan font-size="9" x="61.09" y="0">1 </tspan><tspan font-size="9" x="69.09" y="0">mM</tspan><tspan font-size="9" x="57.59" y="9.58229">MeJA</tspan><tspan font-size="9" x="108.17" y="0">1 </tspan><tspan font-size="9" x="116.17" y="0">mM</tspan><tspan font-size="9" x="108.67" y="9.58229">MeJA</tspan><tspan font-size="9" x="143.25" y="0">P</tspan><tspan font-size="9" x="149.25" y="0">. </tspan><tspan font-size="9" x="155.25" y="0">brassicae</tspan><tspan font-size="9" x="164.25" y="9.58229">OS</tspan></text><text font-family="Arial,Arial_MSFontService,sans-serif" font-weight="700" font-size="11" transform="matrix(1.98289e-16 -3.23513 3.2383 1.98095e-16 2345.41 1916)">relative expression of MYC<tspan font-size="11" x="148.989" y="-9.12296e-15">2</tspan></text><text font-family="Arial,Arial_MSFontService,sans-serif" font-weight="400" font-size="13" transform="matrix(3.2383 0 0 3.23513 2417.33 1333)">Bole</text></g></g></g></g><g clip-path="url(#clip11)"><g clip-path="url(#clip12)"><g clip-path="url(#clip13)"><g clip-path="url(#clip14)"><path d="M115.186 75.0639 809.964 75.0639 809.964 686.682 115.186 686.682Z" fill="#FFFFFF" transform="matrix(1 0 0 1.00122 3444.14 613.682)"/><path d="M140.024 576.709 288.889 576.709 288.889 686.682 140.024 686.682Z" stroke="#000000" stroke-width="5.5375" stroke-linecap="square" stroke-miterlimit="10" fill="#999999" transform="matrix(1 0 0 1.00122 3444.14 613.682)"/><path d="M305.437 401.679 454.302 401.679 454.302 686.682 305.437 686.682Z" stroke="#000000" stroke-width="5.5375" stroke-linecap="square" stroke-miterlimit="10" fill="#E69F00" transform="matrix(1 0 0 1.00122 3444.14 613.682)"/><path d="M470.849 213.534 619.714 213.534 619.714 686.682 470.849 686.682Z" stroke="#000000" stroke-width="5.5375" stroke-linecap="square" stroke-miterlimit="10" fill="#56B4E9" transform="matrix(1 0 0 1.00122 3444.14 613.682)"/><path d="M636.262 541.509 785.127 541.509 785.127 686.65 636.262 686.65Z" stroke="#000000" stroke-width="5.5375" stroke-linecap="square" stroke-miterlimit="10" fill="#009E73" transform="matrix(1 0 0 1.00122 3444.14 613.682)"/><path d="M181.377 548.666 247.536 548.666" stroke="#000000" stroke-width="5.5375" stroke-linejoin="round" stroke-miterlimit="10" fill="none" transform="matrix(1 0 0 1.00122 3444.14 613.682)"/><path d="M214.44 548.666 214.44 604.753" stroke="#000000" stroke-width="5.5375" stroke-linejoin="round" stroke-miterlimit="10" fill="none" transform="matrix(1 0 0 1.00122 3444.14 613.682)"/><path d="M181.377 604.753 247.536 604.753" stroke="#000000" stroke-width="5.5375" stroke-linejoin="round" stroke-miterlimit="10" fill="none" transform="matrix(1 0 0 1.00122 3444.14 613.682)"/><path d="M346.79 285.651 412.948 285.651" stroke="#000000" stroke-width="5.5375" stroke-linejoin="round" stroke-miterlimit="10" fill="none" transform="matrix(1 0 0 1.00122 3444.14 613.682)"/><path d="M379.885 285.651 379.885 517.675" stroke="#000000" stroke-width="5.5375" stroke-linejoin="round" stroke-miterlimit="10" fill="none" transform="matrix(1 0 0 1.00122 3444.14 613.682)"/><path d="M346.79 517.675 412.948 517.675" stroke="#000000" stroke-width="5.5375" stroke-linejoin="round" stroke-miterlimit="10" fill="none" transform="matrix(1 0 0 1.00122 3444.14 613.682)"/><path d="M512.202 181.993 578.361 181.993" stroke="#000000" stroke-width="5.5375" stroke-linejoin="round" stroke-miterlimit="10" fill="none" transform="matrix(1 0 0 1.00122 3444.14 613.682)"/><path d="M545.298 181.993 545.298 245.075" stroke="#000000" stroke-width="5.5375" stroke-linejoin="round" stroke-miterlimit="10" fill="none" transform="matrix(1 0 0 1.00122 3444.14 613.682)"/><path d="M512.202 245.075 578.361 245.075" stroke="#000000" stroke-width="5.5375" stroke-linejoin="round" stroke-miterlimit="10" fill="none" transform="matrix(1 0 0 1.00122 3444.14 613.682)"/><path d="M677.615 492.352 743.806 492.352" stroke="#000000" stroke-width="5.5375" stroke-linejoin="round" stroke-miterlimit="10" fill="none" transform="matrix(1 0 0 1.00122 3444.14 613.682)"/><path d="M710.71 492.352 710.71 590.699" stroke="#000000" stroke-width="5.5375" stroke-linejoin="round" stroke-miterlimit="10" fill="none" transform="matrix(1 0 0 1.00122 3444.14 613.682)"/><path d="M677.615 590.699 743.806 590.699" stroke="#000000" stroke-width="5.5375" stroke-linejoin="round" stroke-miterlimit="10" fill="none" transform="matrix(1 0 0 1.00122 3444.14 613.682)"/></g><g clip-path="url(#clip15)"><path d="M115.186 686.65 115.186 75.0639" stroke="#000000" stroke-width="5.5375" stroke-linejoin="round" stroke-miterlimit="10" fill="none" transform="matrix(1 0 0 1.00122 3444.14 613.682)"/><text font-family="Arial,Arial_MSFontService,sans-serif" font-weight="700" font-size="9" transform="matrix(3.2383 0 0 3.24224 3527.18 1312)">0<tspan font-size="9" x="0" y="-53.975">2</tspan><tspan font-size="9" x="0" y="-107.95">4</tspan><tspan font-size="9" x="0" y="-161.925">6</tspan></text><path d="M106.314 686.65 115.186 686.65" stroke="#333333" stroke-width="3.46498" stroke-linejoin="round" stroke-miterlimit="10" fill="none" transform="matrix(1 0 0 1.00122 3444.14 613.682)"/><path d="M106.314 511.911 115.186 511.911" stroke="#333333" stroke-width="3.46498" stroke-linejoin="round" stroke-miterlimit="10" fill="none" transform="matrix(1 0 0 1.00122 3444.14 613.682)"/><path d="M106.314 337.172 115.186 337.172" stroke="#333333" stroke-width="3.46498" stroke-linejoin="round" stroke-miterlimit="10" fill="none" transform="matrix(1 0 0 1.00122 3444.14 613.682)"/><path d="M106.314 162.433 115.186 162.433" stroke="#333333" stroke-width="3.46498" stroke-linejoin="round" stroke-miterlimit="10" fill="none" transform="matrix(1 0 0 1.00122 3444.14 613.682)"/><path d="M115.186 686.65 809.964 686.65" stroke="#000000" stroke-width="5.5375" stroke-linejoin="round" stroke-miterlimit="10" fill="none" transform="matrix(1 0 0 1.00122 3444.14 613.682)"/><path d="M214.44 695.523 214.44 686.65" stroke="#333333" stroke-width="3.46498" stroke-linejoin="round" stroke-miterlimit="10" fill="none" transform="matrix(1 0 0 1.00122 3444.14 613.682)"/><path d="M379.885 695.523 379.885 686.65" stroke="#333333" stroke-width="3.46498" stroke-linejoin="round" stroke-miterlimit="10" fill="none" transform="matrix(1 0 0 1.00122 3444.14 613.682)"/><path d="M545.298 695.523 545.298 686.65" stroke="#333333" stroke-width="3.46498" stroke-linejoin="round" stroke-miterlimit="10" fill="none" transform="matrix(1 0 0 1.00122 3444.14 613.682)"/><path d="M710.71 695.523 710.71 686.65" stroke="#333333" stroke-width="3.46498" stroke-linejoin="round" stroke-miterlimit="10" fill="none" transform="matrix(1 0 0 1.00122 3444.14 613.682)"/><text font-family="Arial,Arial_MSFontService,sans-serif" font-weight="700" font-size="9" transform="matrix(3.2383 0 0 3.24224 3601.92 1338)">Control<tspan font-size="9" x="53.09" y="0">0</tspan><tspan font-size="9" x="58.09" y="0">.</tspan><tspan font-size="9" x="61.09" y="0">1 </tspan><tspan font-size="9" x="69.09" y="0">mM</tspan><tspan font-size="9" x="57.59" y="9.86971">MeJA</tspan><tspan font-size="9" x="108.17" y="0">1 </tspan><tspan font-size="9" x="116.17" y="0">mM</tspan><tspan font-size="9" x="108.67" y="9.86971">MeJA</tspan><tspan font-size="9" x="143.25" y="0">P</tspan><tspan font-size="9" x="149.25" y="0">. </tspan><tspan font-size="9" x="155.25" y="0">brassicae</tspan><tspan font-size="9" x="164.25" y="9.86971">OS</tspan></text><text font-family="Arial,Arial_MSFontService,sans-serif" font-weight="700" font-size="11" transform="matrix(1.98289e-16 -3.24224 3.2383 1.9853e-16 3487.41 1241)">relative expression of LOX<tspan font-size="11" x="145.887" y="-8.93298e-15">2</tspan></text><text font-family="Arial,Arial_MSFontService,sans-serif" font-weight="400" font-size="13" transform="matrix(3.2383 0 0 3.24224 3559.33 662)">Atha</text></g></g></g></g><g clip-path="url(#clip16)"><g clip-path="url(#clip17)"><g clip-path="url(#clip18)"><g clip-path="url(#clip19)"><path d="M131.331 75.0183 809.473 75.0183 809.473 686.265 131.331 686.265Z" fill="#FFFFFF" transform="matrix(1.00061 0 0 1 3433.14 1284.78)"/><path d="M155.538 617.72 300.85 617.72 300.85 686.233 155.538 686.233Z" stroke="#000000" stroke-width="5.53414" stroke-linecap="square" stroke-miterlimit="10" fill="#999999" transform="matrix(1.00061 0 0 1 3433.14 1284.78)"/><path d="M316.999 447.003 462.311 447.003 462.311 686.233 316.999 686.233Z" stroke="#000000" stroke-width="5.53414" stroke-linecap="square" stroke-miterlimit="10" fill="#E69F00" transform="matrix(1.00061 0 0 1 3433.14 1284.78)"/><path d="M478.46 262.791 623.772 262.791 623.772 686.233 478.46 686.233Z" stroke="#000000" stroke-width="5.53414" stroke-linecap="square" stroke-miterlimit="10" fill="#56B4E9" transform="matrix(1.00061 0 0 1 3433.14 1284.78)"/><path d="M639.921 538.753 785.232 538.753 785.232 686.265 639.921 686.265Z" stroke="#000000" stroke-width="5.53414" stroke-linecap="square" stroke-miterlimit="10" fill="#009E73" transform="matrix(1.00061 0 0 1 3433.14 1284.78)"/><path d="M195.895 599.434 260.493 599.434" stroke="#000000" stroke-width="5.53414" stroke-linejoin="round" stroke-miterlimit="10" fill="none" transform="matrix(1.00061 0 0 1 3433.14 1284.78)"/><path d="M228.194 599.434 228.194 636.037" stroke="#000000" stroke-width="5.53414" stroke-linejoin="round" stroke-miterlimit="10" fill="none" transform="matrix(1.00061 0 0 1 3433.14 1284.78)"/><path d="M195.895 636.037 260.493 636.037" stroke="#000000" stroke-width="5.53414" stroke-linejoin="round" stroke-miterlimit="10" fill="none" transform="matrix(1.00061 0 0 1 3433.14 1284.78)"/><path d="M357.356 333.731 421.954 333.731" stroke="#000000" stroke-width="5.53414" stroke-linejoin="round" stroke-miterlimit="10" fill="none" transform="matrix(1.00061 0 0 1 3433.14 1284.78)"/><path d="M389.655 333.731 389.655 560.307" stroke="#000000" stroke-width="5.53414" stroke-linejoin="round" stroke-miterlimit="10" fill="none" transform="matrix(1.00061 0 0 1 3433.14 1284.78)"/><path d="M357.356 560.307 421.954 560.307" stroke="#000000" stroke-width="5.53414" stroke-linejoin="round" stroke-miterlimit="10" fill="none" transform="matrix(1.00061 0 0 1 3433.14 1284.78)"/><path d="M518.85 234.893 583.414 234.893" stroke="#000000" stroke-width="5.53414" stroke-linejoin="round" stroke-miterlimit="10" fill="none" transform="matrix(1.00061 0 0 1 3433.14 1284.78)"/><path d="M551.116 234.893 551.116 290.688" stroke="#000000" stroke-width="5.53414" stroke-linejoin="round" stroke-miterlimit="10" fill="none" transform="matrix(1.00061 0 0 1 3433.14 1284.78)"/><path d="M518.85 290.688 583.414 290.688" stroke="#000000" stroke-width="5.53414" stroke-linejoin="round" stroke-miterlimit="10" fill="none" transform="matrix(1.00061 0 0 1 3433.14 1284.78)"/><path d="M680.31 496.616 744.875 496.616" stroke="#000000" stroke-width="5.53414" stroke-linejoin="round" stroke-miterlimit="10" fill="none" transform="matrix(1.00061 0 0 1 3433.14 1284.78)"/><path d="M712.609 496.616 712.609 580.89" stroke="#000000" stroke-width="5.53414" stroke-linejoin="round" stroke-miterlimit="10" fill="none" transform="matrix(1.00061 0 0 1 3433.14 1284.78)"/><path d="M680.31 580.89 744.875 580.89" stroke="#000000" stroke-width="5.53414" stroke-linejoin="round" stroke-miterlimit="10" fill="none" transform="matrix(1.00061 0 0 1 3433.14 1284.78)"/></g><g clip-path="url(#clip20)"><path d="M131.331 686.233 131.331 75.0183" stroke="#000000" stroke-width="5.53414" stroke-linejoin="round" stroke-miterlimit="10" fill="none" transform="matrix(1.00061 0 0 1 3433.14 1284.78)"/><text font-family="Arial,Arial_MSFontService,sans-serif" font-weight="700" font-size="9" transform="matrix(3.2383 0 0 3.23634 3532.4 1981)">0<tspan font-size="9" x="0" y="-46.9667">3</tspan><tspan font-size="9" x="0" y="-94.2423">6</tspan><tspan font-size="9" x="0" y="-141.518">9</tspan><tspan font-size="9" x="-5.00004" y="-188.794">12</tspan></text><path d="M122.463 686.233 131.331 686.233" stroke="#333333" stroke-width="3.46288" stroke-linejoin="round" stroke-miterlimit="10" fill="none" transform="matrix(1.00061 0 0 1 3433.14 1284.78)"/><path d="M122.463 533.445 131.331 533.445" stroke="#333333" stroke-width="3.46288" stroke-linejoin="round" stroke-miterlimit="10" fill="none" transform="matrix(1.00061 0 0 1 3433.14 1284.78)"/><path d="M122.463 380.626 131.331 380.626" stroke="#333333" stroke-width="3.46288" stroke-linejoin="round" stroke-miterlimit="10" fill="none" transform="matrix(1.00061 0 0 1 3433.14 1284.78)"/><path d="M122.463 227.806 131.331 227.806" stroke="#333333" stroke-width="3.46288" stroke-linejoin="round" stroke-miterlimit="10" fill="none" transform="matrix(1.00061 0 0 1 3433.14 1284.78)"/><path d="M122.463 75.0183 131.331 75.0183" stroke="#333333" stroke-width="3.46288" stroke-linejoin="round" stroke-miterlimit="10" fill="none" transform="matrix(1.00061 0 0 1 3433.14 1284.78)"/><path d="M131.331 686.233 809.473 686.233" stroke="#000000" stroke-width="5.53414" stroke-linejoin="round" stroke-miterlimit="10" fill="none" transform="matrix(1.00061 0 0 1 3433.14 1284.78)"/><path d="M228.194 695.1 228.194 686.233" stroke="#333333" stroke-width="3.46288" stroke-linejoin="round" stroke-miterlimit="10" fill="none" transform="matrix(1.00061 0 0 1 3433.14 1284.78)"/><path d="M389.655 695.1 389.655 686.233" stroke="#333333" stroke-width="3.46288" stroke-linejoin="round" stroke-miterlimit="10" fill="none" transform="matrix(1.00061 0 0 1 3433.14 1284.78)"/><path d="M551.116 695.1 551.116 686.233" stroke="#333333" stroke-width="3.46288" stroke-linejoin="round" stroke-miterlimit="10" fill="none" transform="matrix(1.00061 0 0 1 3433.14 1284.78)"/><path d="M712.609 695.1 712.609 686.233" stroke="#333333" stroke-width="3.46288" stroke-linejoin="round" stroke-miterlimit="10" fill="none" transform="matrix(1.00061 0 0 1 3433.14 1284.78)"/><text font-family="Arial,Arial_MSFontService,sans-serif" font-weight="700" font-size="9" transform="matrix(3.2383 0 0 3.23634 3604.81 2008)">Control<tspan font-size="9" x="51.89" y="0">0</tspan><tspan font-size="9" x="56.89" y="0">.</tspan><tspan font-size="9" x="59.89" y="0">1 </tspan><tspan font-size="9" x="67.89" y="0">mM</tspan><tspan font-size="9" x="56.39" y="9.57873">MeJA</tspan><tspan font-size="9" x="105.78" y="0">1 </tspan><tspan font-size="9" x="113.78" y="0">mM</tspan><tspan font-size="9" x="106.28" y="9.57873">MeJA</tspan><tspan font-size="9" x="139.68" y="0">P</tspan><tspan font-size="9" x="145.68" y="0">. </tspan><tspan font-size="9" x="151.68" y="0">brassicae</tspan><tspan font-size="9" x="160.68" y="9.57873">OS</tspan></text><text font-family="Arial,Arial_MSFontService,sans-serif" font-weight="700" font-size="11" transform="matrix(1.98289e-16 -3.23634 3.2383 1.98168e-16 3476.41 1916)">relative expression of MYC<tspan font-size="11" x="148.934" y="-9.11957e-15">2</tspan></text><text font-family="Arial,Arial_MSFontService,sans-serif" font-weight="400" font-size="13" transform="matrix(3.2383 0 0 3.23634 3564.56 1333)">Atha</text></g></g></g></g><text font-family="Arial,Arial_MSFontService,sans-serif" font-weight="700" font-size="55" transform="matrix(1 0 0 1 2247.4 697)">a)<tspan font-size="55" x="-14.3972" y="693">b)</tspan><tspan font-size="55" x="1070.59" y="0">c)</tspan><tspan font-size="55" x="1070.59" y="691">d)</tspan><tspan font-style="italic" font-size="64" x="348.73" y="-101">B. oleracea</tspan><tspan font-style="italic" font-size="64" x="1477.98" y="-101">A. thaliana</tspan><tspan font-size="37" x="474.046" y="797">NS</tspan><tspan font-size="37" x="1726.78" y="778">a</tspan><tspan font-size="37" x="1880.81" y="1048">b</tspan><tspan font-size="37" x="1565.32" y="894">b</tspan><tspan font-size="37" x="1399.09" y="1172">b</tspan><tspan font-size="37" x="1726.78" y="77">a</tspan><tspan font-size="37" x="1891.13" y="389">b</tspan><tspan font-size="37" x="1565.32" y="173">b</tspan><tspan font-size="37" x="1399.09" y="452">b</tspan><tspan font-size="37" x="754.119" y="344">b</tspan><tspan font-size="37" x="425.107" y="395">b</tspan><tspan font-size="37" x="260.649" y="419">b</tspan><tspan font-size="37" x="588.741" y="72">a</tspan></text></g></svg>