<svg width="3327" height="1685" xmlns="http://www.w3.org/2000/svg" xmlns:xlink="http://www.w3.org/1999/xlink" overflow="hidden"><defs><clipPath id="clip0"><rect x="404" y="454" width="3327" height="1685"/></clipPath><clipPath id="clip1"><rect x="1316" y="717" width="1709" height="1263"/></clipPath><clipPath id="clip2"><rect x="1316" y="717" width="1709" height="1263"/></clipPath><clipPath id="clip3"><rect x="701" y="468" width="2324" height="1589"/></clipPath><clipPath id="clip4"><rect x="1351" y="754" width="1649" height="1157"/></clipPath><clipPath id="clip5"><rect x="701" y="468" width="2325" height="1589"/></clipPath><clipPath id="clip6"><rect x="1641" y="2024" width="114" height="108"/></clipPath><clipPath id="clip7"><rect x="1641" y="2024" width="114" height="108"/></clipPath><clipPath id="clip8"><rect x="542" y="1906" width="2325" height="1583"/></clipPath><clipPath id="clip9"><rect x="542" y="1907" width="2325" height="1582"/></clipPath><clipPath id="clip10"><rect x="2076" y="2024" width="111" height="108"/></clipPath><clipPath id="clip11"><rect x="2076" y="2024" width="111" height="108"/></clipPath><clipPath id="clip12"><rect x="677" y="1906" width="2325" height="1583"/></clipPath><clipPath id="clip13"><rect x="677" y="1907" width="2325" height="1582"/></clipPath><clipPath id="clip14"><rect x="2470" y="2029" width="115" height="111"/></clipPath><clipPath id="clip15"><rect x="2470" y="2029" width="115" height="111"/></clipPath><clipPath id="clip16"><rect x="765" y="1911" width="2316" height="1589"/></clipPath><clipPath id="clip17"><rect x="765" y="1911" width="2316" height="1589"/></clipPath></defs><g clip-path="url(#clip0)" transform="translate(-404 -454)"><rect x="468" y="1342" width="3262" height="273" fill="#F2F2F2" fill-opacity="0.501961"/><rect x="468" y="752" width="3262" height="273" fill="#F2F2F2" fill-opacity="0.501961"/><g clip-path="url(#clip1)"><g clip-path="url(#clip2)"><g clip-path="url(#clip3)"><g clip-path="url(#clip4)"><path d="M1661.92 1442.46 1661.92 285.979" stroke="#000000" stroke-width="7.83945" stroke-linejoin="round" stroke-miterlimit="10" fill="none" transform="matrix(1 0 0 1.00016 701.222 468.259)"/><path d="M1961.56 1442.46 1961.56 285.979" stroke="#BEBEBE" stroke-width="7.83945" stroke-linejoin="round" stroke-miterlimit="10" stroke-dasharray="41.7187 41.7187" fill="none" transform="matrix(1 0 0 1.00016 701.222 468.259)"/><path d="M1362.28 1442.46 1362.28 285.979" stroke="#BEBEBE" stroke-width="7.83945" stroke-linejoin="round" stroke-miterlimit="10" stroke-dasharray="41.7187 41.7187" fill="none" transform="matrix(1 0 0 1.00016 701.222 468.259)"/><path d="M1661.92 1034.03 1755.26 1034.03 1755.26 1098.26 1661.92 1098.26Z" stroke="#000000" stroke-width="4.90539" stroke-linecap="square" stroke-miterlimit="10" fill="#DEA868" transform="matrix(1 0 0 1.00016 701.222 468.259)"/><path d="M1131.17 969.754 1661.92 969.754 1661.92 1033.98 1131.17 1033.98Z" stroke="#000000" stroke-width="4.90539" stroke-linecap="square" stroke-miterlimit="10" fill="#C7522B" transform="matrix(1 0 0 1.00016 701.222 468.259)"/><path d="M1573.35 905.525 1661.92 905.525 1661.92 969.754 1573.35 969.754Z" stroke="#000000" stroke-width="4.90539" stroke-linecap="square" stroke-miterlimit="10" fill="#9BBAA0" transform="matrix(1 0 0 1.00016 701.222 468.259)"/><path d="M1555.28 1309.37 1661.96 1309.37 1661.96 1373.6 1555.28 1373.6Z" stroke="#000000" stroke-width="4.90539" stroke-linecap="square" stroke-miterlimit="10" fill="#DEA868" transform="matrix(1 0 0 1.00016 701.222 468.259)"/><path d="M820.712 1245.14 1661.92 1245.14 1661.92 1309.37 820.712 1309.37Z" stroke="#000000" stroke-width="4.90539" stroke-linecap="square" stroke-miterlimit="10" fill="#C7522B" transform="matrix(1 0 0 1.00016 701.222 468.259)"/><path d="M1533.69 1180.87 1661.92 1180.87 1661.92 1245.1 1533.69 1245.1Z" stroke="#000000" stroke-width="4.90539" stroke-linecap="square" stroke-miterlimit="10" fill="#9BBAA0" transform="matrix(1 0 0 1.00016 701.222 468.259)"/><path d="M1661.92 758.639 1695.06 758.639 1695.06 822.867 1661.92 822.867Z" stroke="#000000" stroke-width="4.90539" stroke-linecap="square" stroke-miterlimit="10" fill="#DEA868" transform="matrix(1 0 0 1.00016 701.222 468.259)"/><path d="M926.247 694.41 1661.92 694.41 1661.92 758.639 926.247 758.639Z" stroke="#000000" stroke-width="4.90539" stroke-linecap="square" stroke-miterlimit="10" fill="#C7522B" transform="matrix(1 0 0 1.00016 701.222 468.259)"/><path d="M1631.89 630.182 1661.92 630.182 1661.92 694.41 1631.89 694.41Z" stroke="#000000" stroke-width="4.90539" stroke-linecap="square" stroke-miterlimit="10" fill="#9BBAA0" transform="matrix(1 0 0 1.00016 701.222 468.259)"/><path d="M1661.92 483.295 1705.52 483.295 1705.52 547.524 1661.92 547.524Z" stroke="#000000" stroke-width="4.90539" stroke-linecap="square" stroke-miterlimit="10" fill="#DEA868" transform="matrix(1 0 0 1.00016 701.222 468.259)"/><path d="M1316.8 419.067 1661.92 419.067 1661.92 483.295 1316.8 483.295Z" stroke="#000000" stroke-width="4.90539" stroke-linecap="square" stroke-miterlimit="10" fill="#C7522B" transform="matrix(1 0 0 1.00016 701.222 468.259)"/><path d="M1599.02 354.792 1661.96 354.792 1661.96 419.021 1599.02 419.021Z" stroke="#000000" stroke-width="4.90539" stroke-linecap="square" stroke-miterlimit="10" fill="#9BBAA0" transform="matrix(1 0 0 1.00016 701.222 468.259)"/></g><g clip-path="url(#clip5)"><path d="M650.628 1442.46 650.628 285.979" stroke="#000000" stroke-width="7.83945" stroke-linejoin="round" stroke-miterlimit="10" fill="none" transform="matrix(1 0 0 1.00016 701.222 468.259)"/><text font-family="Arial,Arial_MSFontService,sans-serif" font-weight="700" font-size="12" transform="matrix(4.58447 0 0 4.58521 950.205 1765)">Leaf area<tspan font-size="12" x="-3" y="-66.5182">Dry weight</tspan><tspan font-size="12" x="8.5" y="-53.4327">leaves</tspan><tspan font-size="12" x="-26" y="-126.494">Number of siliques</tspan><tspan font-size="12" x="2" y="-113.626">per plant</tspan><tspan font-size="12" x="-3" y="-186.687">Dry weight</tspan><tspan font-size="12" x="-12" y="-173.602">inflorescence</tspan></text><path d="M650.628 1442.46 2298.66 1442.46" stroke="#000000" stroke-width="7.83945" stroke-linejoin="round" stroke-miterlimit="10" fill="none" transform="matrix(1 0 0 1.00016 701.222 468.259)"/><text font-family="Arial,Arial_MSFontService,sans-serif" font-weight="700" font-size="9" transform="matrix(4.58447 0 0 4.58521 1595.7 1963)">-2<tspan font-size="9" x="81.7" y="0">-</tspan><tspan font-size="9" x="84.7" y="0">1</tspan><tspan font-size="9" x="164.9" y="0">0</tspan><tspan font-size="9" x="246.6" y="0">1</tspan><tspan font-size="11" x="72.55" y="12.4313">Cohen</tspan><tspan font-size="11" x="108.55" y="12.4313">'</tspan><tspan font-size="11" x="111.55" y="12.4313">s D estimate</tspan><tspan font-weight="400" font-size="11" x="-6.32" y="-284.829">treatment</tspan></text><path d="M1107.01 134.646 1179.72 134.646 1179.72 207.356 1107.01 207.356Z" stroke="#000000" stroke-width="4.90539" stroke-linecap="square" stroke-miterlimit="10" fill="#DEA868" transform="matrix(1 0 0 1.00016 701.222 468.259)"/><path d="M1418.16 134.646 1490.87 134.646 1490.87 207.356 1418.16 207.356Z" stroke="#000000" stroke-width="4.90539" stroke-linecap="square" stroke-miterlimit="10" fill="#C7522B" transform="matrix(1 0 0 1.00016 701.222 468.259)"/><path d="M1729.26 134.646 1801.97 134.646 1801.97 207.356 1729.26 207.356Z" stroke="#000000" stroke-width="4.90539" stroke-linecap="square" stroke-miterlimit="10" fill="#9BBAA0" transform="matrix(1 0 0 1.00016 701.222 468.259)"/><text font-family="Arial,Arial_MSFontService,sans-serif" font-weight="400" font-size="9" transform="matrix(4.58447 0 0 4.58521 1909.32 654)">MeJA<tspan font-size="9" x="23" y="0">_</tspan><tspan font-size="9" x="28" y="0">0</tspan>.1<tspan font-size="9" x="67.87" y="0">MeJA</tspan><tspan font-size="9" x="90.87" y="0">_</tspan><tspan font-size="9" x="95.87" y="0">1</tspan><tspan font-size="9" x="100.87" y="0">.</tspan><tspan font-size="9" x="103.87" y="0">0</tspan><tspan font-size="9" x="135.73" y="0">oral</tspan><tspan font-size="9" x="150.73" y="0">_</tspan><tspan font-size="9" x="155.73" y="0">secretion</tspan><tspan font-size="13" x="-121.6" y="-25.5168">AT</tspan><tspan font-size="13" x="-106.6" y="-25.5168">_</tspan><tspan font-size="13" x="-99.6" y="-25.5168">BO</tspan></text></g></g></g></g><text font-family="Arial,Arial_MSFontService,sans-serif" font-weight="700" font-size="46" transform="matrix(1 0 0 1 1022.44 887)">Dry weight<tspan font-size="46" x="-42.6937" y="55">Inflorescences</tspan><tspan font-size="46" x="-133.041" y="311">Number of siliques</tspan><tspan font-size="46" x="26.2334" y="581">Dry weight</tspan><tspan font-size="46" x="73.7855" y="636">leaves</tspan><tspan font-size="46" x="67.8977" y="877">Leaf area</tspan><tspan font-style="italic" font-size="50" x="-501.643" y="-41">A. thaliana </tspan><tspan font-style="italic" font-size="50" x="-500.211" y="515">B. oleracea</tspan></text><path d="M3261.26 740.482 3261.26 1907.18" stroke="#000000" stroke-width="6.875" stroke-linejoin="round" stroke-miterlimit="10" fill="none" fill-rule="evenodd"/><text font-family="Arial,Arial_MSFontService,sans-serif" font-weight="700" font-size="48" transform="matrix(1 0 0 1 3044.28 713)">95% CI<tspan font-size="48" x="283.764" y="0">Test</tspan><tspan font-style="italic" font-size="48" x="483.692" y="0">P</tspan><tspan font-size="48" x="528.952" y="0">value</tspan><tspan font-size="37" x="-17.1875" y="80">[</tspan><tspan font-size="37" x="-5.15625" y="80">-</tspan><tspan font-size="37" x="6.875" y="80">1.45;1.12]</tspan><tspan font-weight="400" font-size="46" x="301.524" y="165">LM</tspan><tspan font-weight="400" font-size="46" x="278.034" y="220">T + B</tspan><tspan font-size="37" x="482.661" y="145">T: 0.018</tspan><tspan font-size="37" x="482.661" y="233">B: &lt;0.001</tspan><tspan font-size="37" x="-17.1875" y="175">[</tspan><tspan font-size="37" x="-5.15625" y="175">-</tspan><tspan font-size="37" x="6.875" y="175">2.27;0.43]</tspan><tspan font-size="37" x="-17.1875" y="271">[</tspan><tspan font-size="37" x="-5.15625" y="271">-</tspan><tspan font-size="37" x="6.875" y="271">1.17;1.40]</tspan><tspan font-size="37" x="-17.1875" y="375">[</tspan><tspan font-size="37" x="-5.15625" y="375">-</tspan><tspan font-size="37" x="6.875" y="375">1.36;1.20]</tspan><tspan font-weight="400" font-size="46" x="276.029" y="435">GLM</tspan><tspan font-weight="400" font-size="46" x="375.144" y="435">-</tspan><tspan font-style="italic" font-weight="400" font-size="46" x="251.967" y="490">Gamma</tspan><tspan font-weight="400" font-size="46" x="278.023" y="545">T + B</tspan><tspan font-size="37" x="482.661" y="442">T: </tspan><tspan font-size="37" x="527.348" y="442">&lt;0.001</tspan><tspan font-weight="400" font-size="37" x="482.661" y="530">B: &lt;0.001</tspan><tspan font-size="37" x="-23.2031" y="471">[</tspan><tspan font-size="37" x="-11.1719" y="471">-</tspan><tspan font-size="37" x="0.859375" y="471">3.53;</tspan><tspan font-size="37" x="85.0781" y="471">-</tspan><tspan font-size="37" x="97.1094" y="471">0.39]</tspan><tspan font-size="37" x="-17.1875" y="566">[</tspan><tspan font-size="37" x="-5.15625" y="566">-</tspan><tspan font-size="37" x="6.875" y="566">1.19;1.37]</tspan><tspan font-size="37" x="-17.1875" y="674">[</tspan><tspan font-size="37" x="-5.15625" y="674">-</tspan><tspan font-size="37" x="6.875" y="674">1.61;1.13]</tspan><tspan font-weight="400" font-size="46" x="301.524" y="755">LM</tspan><tspan font-weight="400" font-size="46" x="278.034" y="810">T + B</tspan><tspan font-size="37" x="482.661" y="735">T: </tspan><tspan font-size="37" x="527.348" y="735">0.021</tspan><tspan font-weight="400" font-size="37" x="482.661" y="823">B: </tspan><tspan font-weight="400" font-size="37" x="527.921" y="823">0.126</tspan><tspan font-size="37" x="-23.2031" y="770">[</tspan><tspan font-size="37" x="-11.1719" y="770">-</tspan><tspan font-size="37" x="0.859375" y="770">2.94;</tspan><tspan font-size="37" x="85.0781" y="770">-</tspan><tspan font-size="37" x="97.1094" y="770">0.11]</tspan><tspan font-size="37" x="-17.1875" y="865">[</tspan><tspan font-size="37" x="-5.15625" y="865">-</tspan><tspan font-size="37" x="6.875" y="865">1.12;1.62]</tspan><tspan font-size="37" x="-17.1875" y="961">[</tspan><tspan font-size="37" x="-5.15625" y="961">-</tspan><tspan font-size="37" x="6.875" y="961">1.72;1.03]</tspan><tspan font-weight="400" font-size="46" x="301.524" y="1041">LM</tspan><tspan font-weight="400" font-size="46" x="278.034" y="1096">T + B</tspan><tspan font-size="37" x="482.661" y="1021">T: </tspan><tspan font-size="37" x="527.348" y="1021">0.007</tspan><tspan font-weight="400" font-size="37" x="482.661" y="1109">B: </tspan><tspan font-weight="400" font-size="37" x="527.921" y="1109">0.645</tspan><tspan font-size="37" x="-23.2031" y="1056">[</tspan><tspan font-size="37" x="-11.1719" y="1056">-</tspan><tspan font-size="37" x="0.859375" y="1056">3.99;</tspan><tspan font-size="37" x="85.0781" y="1056">-</tspan><tspan font-size="37" x="97.1094" y="1056">0.49]</tspan><tspan font-size="37" x="-17.1875" y="1151">[</tspan><tspan font-size="37" x="-5.15625" y="1151">-</tspan><tspan font-size="37" x="6.875" y="1151">1.66;1.09]</tspan></text><g clip-path="url(#clip6)"><g clip-path="url(#clip7)"><g clip-path="url(#clip8)"><g clip-path="url(#clip9)"><path d="M647.902 1436.41 647.902 284.781" stroke="#000000" stroke-width="7.8066" stroke-linejoin="round" stroke-miterlimit="10" fill="none" transform="matrix(1.00437 0 0 1 542.698 1907.21)"/><text font-family="Arial,Arial_MSFontService,sans-serif" font-weight="700" font-size="12" transform="matrix(4.58522 0 0 4.56526 791.721 3199)">Leaf area<tspan font-size="12" x="-2.99999" y="-66.5898">Dry weight</tspan><tspan font-size="12" x="8.50001" y="-53.6661">leaves</tspan><tspan font-size="12" x="-26" y="-126.608">Number of siliques</tspan><tspan font-size="12" x="2.00001" y="-113.685">per plant</tspan><tspan font-size="12" x="-2.99999" y="-186.627">Dry weight</tspan><tspan font-size="12" x="-12" y="-173.703">inflorescence</tspan></text><path d="M647.902 1436.41 2289.02 1436.41" stroke="#000000" stroke-width="7.8066" stroke-linejoin="round" stroke-miterlimit="10" fill="none" transform="matrix(1.00437 0 0 1 542.698 1907.21)"/><text font-family="Arial,Arial_MSFontService,sans-serif" font-weight="700" font-size="9" transform="matrix(4.58522 0 0 4.56526 1437.32 3396)">-<tspan font-size="9" x="2.99999" y="0">2</tspan><tspan font-size="9" x="81.7" y="0">-</tspan><tspan font-size="9" x="84.7" y="0">1</tspan><tspan font-size="9" x="164.9" y="0">0</tspan><tspan font-size="9" x="246.6" y="0">1</tspan><tspan font-size="11" x="72.55" y="12.4856">Cohen</tspan><tspan font-size="11" x="108.55" y="12.4856">'</tspan><tspan font-size="11" x="111.55" y="12.4856">s D estimate</tspan><tspan font-weight="400" font-size="11" x="-6.31999" y="-284.978">treatment</tspan></text><path d="M1102.37 134.082 1174.78 134.082 1174.78 206.487 1102.37 206.487Z" stroke="#000000" stroke-width="4.88483" stroke-linecap="square" stroke-miterlimit="10" fill="#DEA868" transform="matrix(1.00437 0 0 1 542.698 1907.21)"/><path d="M1412.22 134.082 1484.62 134.082 1484.62 206.487 1412.22 206.487Z" stroke="#000000" stroke-width="4.88483" stroke-linecap="square" stroke-miterlimit="10" fill="#C7522B" transform="matrix(1.00437 0 0 1 542.698 1907.21)"/><path d="M1722.02 134.082 1794.42 134.082 1794.42 206.487 1722.02 206.487Z" stroke="#000000" stroke-width="4.88483" stroke-linecap="square" stroke-miterlimit="10" fill="#9BBAA0" transform="matrix(1.00437 0 0 1 542.698 1907.21)"/><text font-family="Arial,Arial_MSFontService,sans-serif" font-weight="400" font-size="9" transform="matrix(4.58522 0 0 4.56526 1750.99 2092)">MeJA<tspan font-size="9" x="23" y="0">_</tspan><tspan font-size="9" x="28" y="0">0</tspan><tspan font-size="9" x="33" y="0">.</tspan><tspan font-size="9" x="36" y="0">1</tspan><tspan font-size="9" x="67.87" y="0">MeJA</tspan><tspan font-size="9" x="90.87" y="0">_</tspan><tspan font-size="9" x="95.87" y="0">1</tspan><tspan font-size="9" x="100.87" y="0">.</tspan>0<tspan font-size="9" x="135.73" y="0">oral</tspan><tspan font-size="9" x="150.73" y="0">_</tspan><tspan font-size="9" x="155.73" y="0">secretion</tspan><tspan font-size="13" x="-121.6" y="-25.6283">AT</tspan><tspan font-size="13" x="-106.6" y="-25.6283">_</tspan><tspan font-size="13" x="-99.6" y="-25.6283">BO</tspan></text></g></g></g></g><text font-family="Arial,Arial_MSFontService,sans-serif" font-weight="700" font-size="37" transform="matrix(1 0 0 1 1741.37 2092)">MeJA 0.1mM</text><g clip-path="url(#clip10)"><g clip-path="url(#clip11)"><g clip-path="url(#clip12)"><g clip-path="url(#clip13)"><path d="M647.902 1436.41 647.902 284.781" stroke="#000000" stroke-width="7.8066" stroke-linejoin="round" stroke-miterlimit="10" fill="none" transform="matrix(1.00414 0 0 1 677.579 1907.21)"/><text font-family="Arial,Arial_MSFontService,sans-serif" font-weight="700" font-size="12" transform="matrix(4.58415 0 0 4.56526 926.544 3199)">Leaf area<tspan font-size="12" x="-3.00001" y="-66.5898">Dry weight</tspan><tspan font-size="12" x="8.49999" y="-53.6661">leaves</tspan><tspan font-size="12" x="-26" y="-126.608">Number of siliques</tspan><tspan font-size="12" x="1.99999" y="-113.685">per plant</tspan><tspan font-size="12" x="-3.00001" y="-186.627">Dry weight</tspan><tspan font-size="12" x="-12" y="-173.703">inflorescence</tspan></text><path d="M647.902 1436.41 2289.02 1436.41" stroke="#000000" stroke-width="7.8066" stroke-linejoin="round" stroke-miterlimit="10" fill="none" transform="matrix(1.00414 0 0 1 677.579 1907.21)"/><text font-family="Arial,Arial_MSFontService,sans-serif" font-weight="700" font-size="9" transform="matrix(4.58415 0 0 4.56526 1571.99 3396)">-<tspan font-size="9" x="3" y="0">2</tspan><tspan font-size="9" x="81.7" y="0">-</tspan>1<tspan font-size="9" x="164.9" y="0">0</tspan><tspan font-size="9" x="246.6" y="0">1</tspan><tspan font-size="11" x="72.55" y="12.4856">Cohen</tspan><tspan font-size="11" x="108.55" y="12.4856">'</tspan><tspan font-size="11" x="111.55" y="12.4856">s D estimate</tspan><tspan font-weight="400" font-size="11" x="-6.31999" y="-284.978">treatment</tspan></text><path d="M1102.37 134.082 1174.78 134.082 1174.78 206.487 1102.37 206.487Z" stroke="#000000" stroke-width="4.88483" stroke-linecap="square" stroke-miterlimit="10" fill="#DEA868" transform="matrix(1.00414 0 0 1 677.579 1907.21)"/><path d="M1412.22 134.082 1484.62 134.082 1484.62 206.487 1412.22 206.487Z" stroke="#000000" stroke-width="4.88483" stroke-linecap="square" stroke-miterlimit="10" fill="#C7522B" transform="matrix(1.00414 0 0 1 677.579 1907.21)"/><path d="M1722.02 134.082 1794.42 134.082 1794.42 206.487 1722.02 206.487Z" stroke="#000000" stroke-width="4.88483" stroke-linecap="square" stroke-miterlimit="10" fill="#9BBAA0" transform="matrix(1.00414 0 0 1 677.579 1907.21)"/><text font-family="Arial,Arial_MSFontService,sans-serif" font-weight="400" font-size="9" transform="matrix(4.58415 0 0 4.56526 1885.6 2092)">MeJA<tspan font-size="9" x="23" y="0">_</tspan>0.<tspan font-size="9" x="36" y="0">1</tspan><tspan font-size="9" x="67.87" y="0">MeJA</tspan><tspan font-size="9" x="90.87" y="0">_</tspan><tspan font-size="9" x="95.87" y="0">1</tspan><tspan font-size="9" x="100.87" y="0">.</tspan><tspan font-size="9" x="103.87" y="0">0</tspan><tspan font-size="9" x="135.73" y="0">oral</tspan><tspan font-size="9" x="150.73" y="0">_</tspan><tspan font-size="9" x="155.73" y="0">secretion</tspan><tspan font-size="13" x="-121.6" y="-25.6283">AT</tspan><tspan font-size="13" x="-106.6" y="-25.6283">_</tspan><tspan font-size="13" x="-99.6" y="-25.6283">BO</tspan></text></g></g></g></g><text font-family="Arial,Arial_MSFontService,sans-serif" font-weight="700" font-size="37" transform="matrix(1 0 0 1 2191.53 2092)">MeJA 1mM<tspan font-style="italic" font-size="37" x="393.739" y="0">P. </tspan><tspan font-style="italic" font-size="37" x="438.999" y="0">brassicae</tspan><tspan font-size="37" x="620.041" y="0">OS</tspan></text><g clip-path="url(#clip14)"><g clip-path="url(#clip15)"><g clip-path="url(#clip16)"><g clip-path="url(#clip17)"><path d="M648.357 1437.42 648.357 284.981" stroke="#000000" stroke-width="7.81208" stroke-linejoin="round" stroke-miterlimit="10" fill="none" transform="matrix(1 0 0 1.00341 765.05 1911.73)"/><text font-family="Arial,Arial_MSFontService,sans-serif" font-weight="700" font-size="12" transform="matrix(4.56847 0 0 4.58403 1013.16 3209)">Leaf area<tspan font-size="12" x="-3.00001" y="-66.5354">Dry weight</tspan><tspan font-size="12" x="8.49999" y="-53.6646">leaves</tspan><tspan font-size="12" x="-26" y="-126.744">Number of siliques</tspan><tspan font-size="12" x="1.99999" y="-113.656">per plant</tspan><tspan font-size="12" x="-3.00001" y="-186.735">Dry weight</tspan><tspan font-size="12" x="-12" y="-173.865">inflorescence</tspan></text><path d="M648.357 1437.42 2290.63 1437.42" stroke="#000000" stroke-width="7.81208" stroke-linejoin="round" stroke-miterlimit="10" fill="none" transform="matrix(1 0 0 1.00341 765.05 1911.73)"/><text font-family="Arial,Arial_MSFontService,sans-serif" font-weight="700" font-size="9" transform="matrix(4.56847 0 0 4.58403 1656.4 3406)">-<tspan font-size="9" x="2.99998" y="0">2</tspan><tspan font-size="9" x="81.7" y="0">-</tspan><tspan font-size="9" x="84.7" y="0">1</tspan><tspan font-size="9" x="164.9" y="0">0</tspan><tspan font-size="9" x="246.6" y="0">1</tspan><tspan font-size="11" x="72.55" y="12.6526">Cohen</tspan><tspan font-size="11" x="108.55" y="12.6526">'</tspan><tspan font-size="11" x="111.55" y="12.6526">s D estimate</tspan><tspan font-weight="400" font-size="11" x="-6.32002" y="-284.684">treatment</tspan></text><path d="M1103.15 134.176 1175.6 134.176 1175.6 206.632 1103.15 206.632Z" stroke="#000000" stroke-width="4.88826" stroke-linecap="square" stroke-miterlimit="10" fill="#DEA868" transform="matrix(1 0 0 1.00341 765.05 1911.73)"/><path d="M1413.21 134.176 1485.66 134.176 1485.66 206.632 1413.21 206.632Z" stroke="#000000" stroke-width="4.88826" stroke-linecap="square" stroke-miterlimit="10" fill="#C7522B" transform="matrix(1 0 0 1.00341 765.05 1911.73)"/><path d="M1723.23 134.176 1795.68 134.176 1795.68 206.632 1723.23 206.632Z" stroke="#000000" stroke-width="4.88826" stroke-linecap="square" stroke-miterlimit="10" fill="#9BBAA0" transform="matrix(1 0 0 1.00341 765.05 1911.73)"/><text font-family="Arial,Arial_MSFontService,sans-serif" font-weight="400" font-size="9" transform="matrix(4.56847 0 0 4.58403 1968.93 2097)">MeJA_<tspan font-size="9" x="28" y="0">0</tspan><tspan font-size="9" x="33" y="0">.</tspan><tspan font-size="9" x="36" y="0">1</tspan><tspan font-size="9" x="67.87" y="0">MeJA</tspan><tspan font-size="9" x="90.87" y="0">_</tspan>1<tspan font-size="9" x="100.87" y="0">.</tspan><tspan font-size="9" x="103.87" y="0">0</tspan><tspan font-size="9" x="135.73" y="0">oral</tspan><tspan font-size="9" x="150.73" y="0">_</tspan><tspan font-size="9" x="155.73" y="0">secretion</tspan><tspan font-size="13" x="-121.6" y="-25.5234">AT</tspan><tspan font-size="13" x="-106.6" y="-25.5234">_</tspan><tspan font-size="13" x="-99.6" y="-25.5234">BO</tspan></text></g></g></g></g><text font-family="Arial,Arial_MSFontService,sans-serif" font-weight="700" font-size="50" transform="matrix(1 0 0 1 535.062 726)">Species<tspan font-size="50" x="561.789" y="-9">Trait</tspan><tspan font-size="50" x="1530.33" y="0">Cohen’s D estimate</tspan></text></g></svg>